<?xml version="1.0" encoding="utf-8"?>
<!-- Generator: Adobe Illustrator 24.3.0, SVG Export Plug-In . SVG Version: 6.00 Build 0)  -->
<svg version="1.1" xmlns="http://www.w3.org/2000/svg" xmlns:xlink="http://www.w3.org/1999/xlink" x="0px" y="0px"
	 viewBox="0 0 792 792" style="enable-background:new 0 0 792 792;" xml:space="preserve">
<style type="text/css">
	.st0{display:none;}
	.st1{display:inline;fill:none;stroke:#000000;stroke-width:5;stroke-miterlimit:10;}
	.st2{display:inline;fill:none;stroke:#000000;stroke-width:4.3483;stroke-miterlimit:10;}
	.st3{display:inline;}
</style>
<g id="Layer_1__x2B__Levels_1_xA0_Image_1_">
</g>
<g id="Layer_2">
	<g>
		<g>
			<g>
				<g>
					<path d="M332.82,239.07c-1.22-0.97-2.58-1.91-4.08-2.79c-1.23-0.72-2.56-1.42-3.96-2.08c-1.3-0.6-2.83-1.28-4.33-1.77
						c-3.05-1.03-6.36-1.88-9.87-2.54c-1.51-0.31-2.99-0.45-4.55-0.6l-0.65-0.06c-1.74-0.15-3.54-0.26-5.34-0.31
						c-0.89-0.03-1.79-0.04-2.68-0.04c-0.9,0.03-1.82,0.08-2.6,0.14c-1.75,0.12-3.51,0.29-5.23,0.51c-2.96,0.33-6.01,1-9.62,2.11
						c-1.48,0.46-2.91,0.96-4.23,1.5c-1.17,0.52-2.34,1.12-3.59,1.85c-1.4,0.83-2.57,1.64-3.53,2.45c2.86,1.51,6.92,2.68,11.93,3.44
						c0.72,0.11,1.49,0.21,2.28,0.31l0.03,0l0.03,0c0.79,0.12,1.59,0.23,2.4,0.33c1.6,0.2,3.27,0.36,4.95,0.48
						c1.58,0.12,3.23,0.2,5.06,0.26l0.03,0l0.03,0c1.74,0.11,3.49,0.19,5.2,0.23c0.86,0.02,1.72,0.03,2.58,0.03
						c0.86,0,1.71-0.01,2.56-0.03c0.75-0.02,1.52-0.02,2.28-0.02c1,0,1.95,0,2.88-0.04c2.72-0.08,5.35-0.3,7.89-0.52
						c0.61-0.05,1.22-0.1,1.82-0.15c1.48-0.15,2.94-0.36,4.3-0.62c0.56-0.1,1.1-0.22,1.64-0.34l0.43-0.09l0.03-0.01l0.03-0.01
						c0.67-0.12,1.33-0.26,1.95-0.4C330.3,239.94,331.62,239.54,332.82,239.07z"/>
				</g>
				<g>
					<path d="M273.77,229.96l0.03-0.02c1.09-0.88,2.22-1.86,3.36-2.93c1.71-1.61,3.42-3.44,5.22-5.37c0.59-0.63,1.18-1.26,1.77-1.89
						c1.14-1.25,2.32-2.61,3.5-4.03l0.88-1.08l0.89-1.09l0.74-0.88l1.09-1.3c1.16-1.41,2.34-2.9,3.48-4.41
						c0.57-0.74,1.13-1.51,1.67-2.25c0.57-0.79,1.17-1.61,1.77-2.39c2.27-3.02,4.37-6.09,6.24-9.1c0.37-0.62,0.76-1.24,1.14-1.85
						c0.57-0.91,1.1-1.76,1.6-2.64c0.87-1.49,1.65-2.95,2.33-4.34c0.82-1.67,1.5-3.26,2.05-4.77c-1.87,0.57-3.83,1.31-5.87,2.21
						c-0.79,0.35-1.61,0.73-2.43,1.13c-0.78,0.41-1.58,0.88-2.39,1.36c-1.61,0.95-3.25,2.01-4.89,3.13
						c-2.8,1.85-5.74,4.27-9.31,7.65l-0.32,0.31c-1.39,1.34-2.71,2.61-3.92,3.99c-1.34,1.53-2.64,3.11-3.86,4.68
						c-1.21,1.56-2.37,3.14-3.44,4.69c-0.99,1.55-1.95,3.18-2.86,4.83c-0.87,1.59-1.67,3.18-2.36,4.71
						c-0.34,0.76-0.67,1.51-0.96,2.24c-0.28,0.75-0.54,1.5-0.78,2.25c-1.53,4.8-2.06,8.92-1.56,12.07c1.32-0.62,2.64-1.41,3.95-2.35
						c0.92-0.65,1.91-1.44,3.2-2.55L273.77,229.96z"/>
				</g>
			</g>
			<g>
				<g>
					<path d="M287.73,254.12c-0.68-0.2-1.48-0.43-2.25-0.61c-0.74-0.17-1.53-0.32-2.32-0.47c-3.29-0.59-6.68-0.94-10.09-1.05
						l-0.33,0c-3.34,0-6.8,0.21-10.29,0.62c-3.15,0.45-6.53,1.17-10.29,2.21c-0.77,0.2-1.52,0.44-2.34,0.75
						c-0.81,0.29-1.6,0.59-2.36,0.89c-1.54,0.61-3.03,1.26-4.43,1.93l-0.33,0.16c-0.59,0.29-1.15,0.56-1.65,0.85
						c-0.63,0.37-1.25,0.75-1.85,1.14c-1.2,0.78-2.31,1.58-3.31,2.37c-1.07,0.86-1.92,1.64-2.61,2.38
						c-0.16,0.19-0.32,0.38-0.47,0.57c1.17,0.39,2.51,0.71,4,0.94c2.52,0.42,5.35,0.63,8.43,0.64l0.23,0c1.43,0,2.92-0.04,4.45-0.13
						c0.61-0.04,1.25-0.07,1.89-0.1c1.03-0.05,2.09-0.1,3.12-0.18c1.69-0.12,3.39-0.28,5.08-0.48l2.56-0.33l0.88-0.1l1.78-0.2
						c1.71-0.21,3.42-0.46,5.07-0.74c0.83-0.14,1.66-0.29,2.48-0.45l0.03-0.01l0.03,0l2.54-0.42c1.64-0.29,3.25-0.62,4.77-0.97
						c0.77-0.18,1.54-0.37,2.27-0.57l0.02-0.01l0.02-0.01l1.11-0.27l1.2-0.29c1.46-0.37,2.87-0.79,4.17-1.23
						c0.81-0.27,1.59-0.58,2.35-0.88c0.51-0.2,1.02-0.4,1.53-0.59c1.32-0.53,2.53-1.1,3.62-1.73c-1.36-0.79-2.86-1.51-4.48-2.17
						C290.64,255.05,289.21,254.56,287.73,254.12z"/>
				</g>
				<g>
					<path d="M236.77,257.75c0.45-0.54,0.91-1.11,1.37-1.69l1.49-1.85c0.92-1.17,1.87-2.48,2.81-3.85c0.46-0.67,0.93-1.38,1.39-2.11
						c0.38-0.61,0.91-1.44,1.47-2.26c2.08-3.11,4.08-6.61,5.59-9.3c1.9-3.21,3.7-6.54,5.36-9.95l0.01-0.02l0.01-0.02
						c1.91-3.65,3.46-6.91,4.74-9.94c0.35-0.83,0.69-1.66,1.01-2.47l0.99-2.45c0.61-1.56,1.15-3.12,1.61-4.59
						c0.55-1.78,0.98-3.47,1.28-5.05c-1.77,0.84-3.62,1.87-5.51,3.08c-1.43,0.87-2.76,1.93-4.37,3.22c-1.44,1.18-2.9,2.46-4.34,3.81
						l-0.37,0.35c-0.6,0.57-1.17,1.1-1.71,1.68c-0.67,0.72-1.35,1.48-2.01,2.24c-1.32,1.52-2.63,3.1-3.87,4.71l-0.2,0.26
						c-0.56,0.73-1.09,1.42-1.6,2.14c-0.55,0.82-1.12,1.68-1.66,2.54c-1.08,1.71-2.12,3.45-3.08,5.17
						c-0.47,0.85-0.94,1.71-1.38,2.56c-0.45,0.92-0.85,1.84-1.19,2.62c-0.76,1.75-1.46,3.5-2.07,5.2c-0.56,1.6-1.15,3.27-1.55,4.94
						c-0.4,1.66-0.73,3.27-0.96,4.8c-0.47,3.1-0.59,5.86-0.36,8.2c0.16,1.46,0.44,2.77,0.84,3.93c0.24-0.18,0.48-0.36,0.72-0.56
						l0.03-0.02l0.03-0.02c0.98-0.74,1.9-1.52,2.74-2.33C234.93,259.83,235.85,258.84,236.77,257.75z"/>
				</g>
			</g>
			<g>
				<g>
					<path d="M256.3,275.87c-0.64-0.06-1.35-0.1-2.21-0.13c-0.63-0.02-1.29-0.03-1.94-0.03c-0.91,0-1.85,0.02-2.8,0.07
						c-1.62,0.08-3.3,0.22-5.01,0.43c-1.66,0.21-3.32,0.56-5.01,0.93c-2.62,0.6-6.53,1.57-10.06,3.04l-0.03,0.01l-0.03,0.01
						c-11.93,4.58-22.12,12.62-25.4,19.79c0.61,0.06,1.26,0.09,1.95,0.09c0.73,0,1.5-0.03,2.3-0.1c1.22-0.1,2.54-0.27,3.93-0.52
						c1.34-0.25,2.76-0.56,4.25-0.88l0.1-0.02c2.92-0.67,6.03-1.56,9.22-2.66c4.02-1.3,6.99-2.36,9.67-3.45
						c0.81-0.35,1.69-0.68,2.53-1.01c0.76-0.29,1.55-0.6,2.29-0.91c1.6-0.66,3.14-1.33,4.59-2.02c0.73-0.36,1.52-0.72,2.29-1.06
						c0.76-0.34,1.49-0.67,2.18-1.01c1.46-0.71,2.83-1.43,4.09-2.15c0.58-0.35,1.2-0.69,1.8-1.03c0.72-0.4,1.39-0.77,2.01-1.16
						c1.22-0.75,2.32-1.5,3.31-2.26c0.24-0.19,0.51-0.41,0.78-0.62c0.75-0.59,1.46-1.15,2.1-1.72c0.08-0.07,0.15-0.14,0.23-0.21
						c-1.53-0.46-3.19-0.83-4.95-1.11C257.8,276.05,257.06,275.95,256.3,275.87z"/>
				</g>
				<g>
					<path d="M219.49,240.56c0.09-0.92,0.17-1.83,0.22-2.52c0.08-0.85,0.14-1.65,0.18-2.41c0.1-1.87,0.1-3.61,0.01-5.23
						c-0.33,0.26-0.66,0.53-0.98,0.8c-1.44,1.21-2.58,2.3-3.57,3.43c-1.19,1.32-2.36,2.73-3.5,4.22l-0.35,0.46
						c-0.99,1.32-2.02,2.69-2.87,4.15c-1.03,1.7-2.01,3.44-2.94,5.22l-0.32,0.62c-0.82,1.6-1.6,3.11-2.22,4.73
						c-0.77,1.91-1.49,3.82-2.14,5.73l-0.18,0.53c-0.58,1.74-1.12,3.39-1.5,5.1c-1,4.29-1.63,7.96-1.92,11.23
						c-0.25,3.6-0.23,7.01,0.06,10.07c0.12,1.4,0.35,2.84,0.69,4.29c0.31,1.36,0.69,2.62,1.12,3.76c0.52,1.39,1.12,2.6,1.79,3.62
						c5.86-6.95,10.15-20.77,12.94-30.9c0.31-1.27,0.64-2.53,0.97-3.78c0.61-2.33,1.23-4.74,1.74-7.14c0.27-1.2,0.51-2.43,0.74-3.62
						c0.12-0.64,0.25-1.28,0.37-1.9c0.37-1.8,0.7-3.59,0.97-5.31C219.09,243.96,219.32,242.22,219.49,240.56z"/>
				</g>
			</g>
			<g>
				<g>
					<path d="M188.87,387.2c1.36-1.1,2.76-2.29,4.13-3.51c1.36-1.21,2.72-2.48,4.03-3.77c0.51-0.49,1.03-0.98,1.54-1.46
						c0.86-0.81,1.76-1.65,2.59-2.48c1.35-1.33,2.65-2.68,3.87-4c0.57-0.62,1.17-1.24,1.76-1.86c0.73-0.75,1.41-1.46,2.05-2.18
						c1.24-1.36,2.39-2.7,3.45-4.01c0.42-0.51,0.83-1,1.25-1.49c0.72-0.85,1.4-1.66,2.01-2.46c1.02-1.31,1.94-2.6,2.74-3.84
						c0.27-0.41,0.54-0.82,0.81-1.22c0.58-0.87,1.14-1.7,1.59-2.51c0.87-1.47,1.53-2.94,2.05-4.3c-0.49,0.04-0.99,0.1-1.49,0.16
						c-1.38,0.19-2.86,0.49-4.48,0.91c-3.07,0.8-6.31,1.99-9.62,3.54c-3.02,1.49-6.14,3.36-9.52,5.72c-1.38,0.94-2.76,2.03-4.5,3.53
						c-1.46,1.26-2.91,2.59-4.32,3.97c-0.69,0.67-1.38,1.37-2.05,2.06c-0.57,0.64-1.17,1.34-1.85,2.15c-1.22,1.46-2.4,2.98-3.52,4.5
						c-0.55,0.75-1.1,1.53-1.62,2.29c-0.38,0.55-0.71,1.12-1.05,1.72l-0.32,0.55c-0.88,1.53-1.7,3.09-2.43,4.61l-0.21,0.45
						c-0.64,1.38-1.25,2.68-1.63,3.93c-0.48,1.51-0.87,2.95-1.15,4.31c-0.4,2.02-0.59,3.65-0.58,5.03c3.51-1.1,7.75-3.5,12.41-7.06
						c0.83-0.63,1.62-1.28,2.46-1.97C187.79,388.07,188.32,387.64,188.87,387.2z"/>
				</g>
				<g>
					<path d="M170.51,387.65c-0.01-0.62,0-1.28,0.01-1.94c0.01-0.98,0.03-1.99-0.02-2.99c-0.05-1.69-0.17-3.47-0.35-5.3
						c-0.04-0.44-0.09-0.86-0.14-1.28c-0.06-0.53-0.12-1.06-0.16-1.58c-0.07-0.91-0.16-1.86-0.27-2.82
						c-0.2-1.88-0.47-3.85-0.78-5.84l-0.24-1.45l-0.27-1.58l-0.19-1.26l-0.27-1.83c-0.32-1.98-0.69-4.04-1.1-6.09
						c-0.16-0.79-0.33-1.58-0.5-2.37c-0.27-1.26-0.55-2.57-0.79-3.85c-0.77-3.79-1.76-7.8-2.95-11.88
						c-1.06-3.97-2.24-7.57-3.53-10.74c-0.63-1.57-1.35-3.14-2.13-4.67c-0.2-0.41-0.4-0.8-0.61-1.19c-1.15,2.21-2.06,4.61-2.82,6.8
						c-0.59,1.79-1.21,3.68-1.63,5.68c-0.42,2.01-0.78,4.12-1.07,6.27l-0.02,0.15c-0.26,2.07-0.53,4.2-0.61,6.33
						c-0.07,2.21-0.07,4.48,0,6.73l0.02,0.63c0.08,2.07,0.15,4.03,0.41,6.01c0.28,2.23,0.63,4.46,1.04,6.62
						c0.44,2.26,0.85,4.3,1.41,6.27c0.6,2.04,1.25,4.05,1.95,5.95c0.7,1.9,1.44,3.73,2.22,5.43c0.74,1.66,1.68,3.28,2.59,4.8
						c3.02,4.98,6.28,8.58,9.53,10.53c0.52-1.72,0.86-3.41,1.03-5.1C170.43,390.69,170.51,389.2,170.51,387.65z"/>
				</g>
			</g>
			<g>
				<g>
					<path d="M200.26,338.59c1.55-0.85,3.14-1.77,4.72-2.73c1.56-0.96,3.14-1.97,4.67-3c0.6-0.4,1.19-0.78,1.79-1.17
						c1-0.65,2.04-1.32,3.01-1.99c1.58-1.08,3.11-2.17,4.56-3.26c0.68-0.51,1.38-1.02,2.08-1.52c0.86-0.61,1.66-1.19,2.43-1.79
						c1.47-1.12,2.86-2.24,4.14-3.34c0.51-0.43,1.01-0.84,1.51-1.25c0.87-0.71,1.69-1.38,2.44-2.07c1.25-1.11,2.39-2.22,3.42-3.3
						c0.34-0.36,0.68-0.71,1.02-1.06c0.74-0.76,1.44-1.47,2.04-2.19c1.13-1.29,2.05-2.62,2.82-3.86c-0.48-0.04-0.97-0.08-1.46-0.1
						c-0.42-0.02-0.86-0.03-1.31-0.03c-1.03,0-2.1,0.04-3.27,0.14c-3.17,0.25-6.58,0.86-10.13,1.8c-3.25,0.94-6.68,2.24-10.44,3.96
						c-1.54,0.68-3.1,1.51-5.09,2.69c-1.68,0.99-3.35,2.04-4.99,3.15c-0.81,0.54-1.61,1.1-2.41,1.67c-0.68,0.53-1.41,1.11-2.23,1.79
						c-1.48,1.23-2.93,2.51-4.31,3.81c-0.69,0.65-1.37,1.31-2.03,1.97c-0.47,0.47-0.91,0.98-1.36,1.51l-0.41,0.48
						c-1.15,1.35-2.25,2.74-3.26,4.11l-0.29,0.41c-0.89,1.24-1.73,2.42-2.34,3.59c-0.76,1.4-1.41,2.75-1.94,4.04
						c-0.77,1.9-1.26,3.46-1.51,4.82c3.66-0.47,8.27-2.1,13.51-4.77c0.94-0.47,1.84-0.97,2.79-1.5
						C199.04,339.26,199.64,338.92,200.26,338.59z"/>
				</g>
				<g>
					<path d="M184.73,295.4c-0.04-3.86-0.27-7.98-0.66-12.2c-0.29-4.08-0.78-7.83-1.45-11.18c-0.33-1.65-0.74-3.32-1.21-4.96
						c-0.12-0.43-0.24-0.84-0.37-1.25c-1.56,1.98-2.9,4.19-4.07,6.21c-0.92,1.66-1.89,3.41-2.67,5.31
						c-0.79,1.91-1.54,3.92-2.23,5.98l-0.04,0.13c-0.65,1.99-1.32,4.04-1.79,6.12c-0.48,2.16-0.91,4.39-1.27,6.61l-0.09,0.62
						c-0.31,2.05-0.61,3.99-0.73,5.98c-0.14,2.25-0.22,4.5-0.22,6.69c0.01,2.3,0.02,4.38,0.2,6.41c0.2,2.11,0.47,4.2,0.8,6.19
						c0.33,1.99,0.72,3.91,1.16,5.73c0.42,1.77,1.04,3.52,1.64,5.17c2.03,5.42,4.55,9.53,7.38,12.01c0.84-1.61,1.5-3.22,1.99-4.87
						c0.41-1.33,0.77-2.78,1.06-4.31c0.11-0.61,0.24-1.26,0.38-1.91c0.2-0.96,0.4-1.95,0.55-2.94c0.27-1.68,0.49-3.44,0.65-5.27
						c0.04-0.44,0.08-0.86,0.11-1.28c0.04-0.53,0.08-1.06,0.14-1.58c0.1-0.92,0.19-1.87,0.27-2.82c0.15-1.88,0.26-3.86,0.33-5.88
						l0.03-1.51l0.04-1.56l0.08-1.84l0.05-1.28c0.06-2.01,0.08-4.09,0.07-6.18c-0.01-0.8-0.03-1.61-0.04-2.41
						C184.76,298.03,184.73,296.7,184.73,295.4z"/>
				</g>
			</g>
			<g>
				<g>
					<path d="M186.86,433.78l1.98-2.63l1.61-2.15c2.6-3.44,4.94-7.03,6.89-10.08l0.02-0.02l0.02-0.02c2.18-3.2,4.25-6.57,6.32-10.29
						l0.02-0.04l0.02-0.04c2.01-3.28,3.79-6.62,5.29-9.94l0.02-0.04l0.02-0.04c1.66-3.25,2.91-6.33,3.71-9.15l0.01-0.05l0.02-0.05
						c0.66-1.94,1.11-3.71,1.37-5.34c-2.15,0.62-4.37,1.47-6.63,2.55c-1.67,0.8-3.3,1.68-4.83,2.61c-1.51,0.96-3.08,2.07-4.63,3.26
						c-1.54,1.19-3.1,2.49-4.63,3.87c-0.75,0.68-1.51,1.39-2.26,2.11c-0.67,0.69-1.35,1.42-2.08,2.24
						c-1.38,1.54-2.75,3.17-4.07,4.86l-0.36,0.47c-1.17,1.51-2.37,3.08-3.3,4.64c-2.57,4.14-4.52,7.76-5.98,11.09
						c-1.54,3.78-2.78,7.52-3.69,11.12c-1.31,6.55-1.43,12.02-0.37,15.98c4.34-2.34,8.61-6.79,11.96-10.57
						C184.49,436.77,185.69,435.31,186.86,433.78z"/>
				</g>
				<g>
					<path d="M133.53,388.69c0.45,4.5,1.28,9.36,2.46,14.44c1.21,4.51,2.82,9.23,4.77,14.02c1.78,4.06,4,8.26,6.6,12.48
						c1,1.66,2.18,3.34,3.73,5.31c1.31,1.67,2.64,3.24,3.96,4.65c4.23,4.63,8.9,7.94,13.13,9.35c0.3-4.54-0.44-10.04-2.19-16.09
						l-0.01-0.05l-0.01-0.05c-0.84-3.54-2.04-7.41-3.57-11.52c-1.29-3.75-2.85-8.13-4.71-12.49c-0.52-1.16-0.99-2.35-1.45-3.5
						c-0.38-0.96-0.78-1.95-1.19-2.91c-0.9-2.13-1.85-4.26-2.83-6.36l-1.04-2.16l-0.48-1l-0.39-0.84l-1.07-2.31
						c-0.97-2.04-1.98-4.05-3-5.97c-1.05-1.98-2.13-3.88-3.21-5.67c-1.19-2.07-2.2-3.72-3.19-5.21c-1.5-2.27-3.02-4.28-4.52-6.02
						c-0.74,2.57-1.31,5.34-1.68,8.28C133.27,379.3,133.23,383.88,133.53,388.69z"/>
				</g>
			</g>
			<g>
				<g>
					<path d="M214.58,441.19l0.01-0.03c1.52-6.54,2.09-12.28,1.7-17.11c-2.23,1.19-4.49,2.66-6.72,4.39
						c-2.77,2.17-5.49,4.86-8.55,8.48c-1.36,1.62-2.71,3.37-4.02,5.19c-1.05,1.55-2.16,3.35-3.45,5.64
						c-1.88,3.38-4.24,7.87-5.74,12.41l-0.01,0.03l-0.01,0.03c-5.98,16.19-6.32,33.83-1.03,43.2c1.49-1.25,2.99-2.88,4.48-4.85
						c1.91-2.52,3.63-5.44,5.79-9.34c1.83-3.39,3.61-7.19,5.27-11.27l0.01-0.03l0.02-0.03c1.82-4.04,3.45-8.17,4.87-12.29l0.16-0.44
						c1.45-3.99,2.96-8.12,4.04-12.03l0.43-1.54l0.01-0.03l0.01-0.03l0.49-1.54c0.31-1,0.6-2,0.87-2.98
						c0.55-1.99,1.02-3.94,1.38-5.79L214.58,441.19z"/>
				</g>
				<g>
					<path d="M159.03,458.95c-1.77-2.48-3.6-5.04-5.52-7.49c-1.5-1.95-3.04-3.85-4.77-5.95c-1.56-1.99-3.12-3.9-4.67-5.7
						c-2.81-3.29-6.03-6.68-9.59-10.06c-2.25-2.16-4.45-4.03-6.57-5.57c-0.45,6.78,0.79,14.99,3.63,23.98
						c0.83,2.42,1.78,4.94,2.81,7.43c0.51,1.23,1.05,2.48,1.6,3.72l0.83,1.8l0.95,1.8c3.15,5.79,5.79,10.06,8.55,13.83
						c3.24,4.28,6.63,8.25,10.06,11.77c3.6,3.45,7.22,6.43,10.74,8.86c3.16,2.23,6.67,4.09,10.19,5.39
						c2.29,0.84,4.44,1.36,6.41,1.56c-1.89-11.64-12.2-27.66-21.19-40.57C161.32,462.15,160.16,460.53,159.03,458.95z"/>
				</g>
			</g>
			<g>
				<g>
					<path d="M217.25,512.81c0.06-1.39,0.07-2.79,0.08-4.14l0.01-1.35c0.07-1.9,0.09-3.71,0.06-5.44c-0.01-1.27-0.08-2.54-0.14-3.76
						c-0.03-0.49-0.05-0.98-0.07-1.46c-0.04-1.76-0.14-3.43-0.29-4.99c-0.14-1.56-0.38-3.08-0.61-4.55l-0.01-0.07l0-0.03l0-0.03
						c-0.19-1.49-0.44-2.91-0.75-4.21c-0.32-1.32-0.7-2.57-1.15-3.71l-0.15-0.38c-0.06-0.16-0.12-0.33-0.19-0.49
						c-0.35,0.36-0.7,0.72-1.04,1.1c-0.55,0.61-1.02,1.17-1.44,1.7c-0.43,0.57-0.88,1.19-1.31,1.82c-1.73,2.55-3.3,5.49-4.69,8.74
						c-0.62,1.4-1.15,2.88-1.76,4.96c-0.51,1.72-0.98,3.52-1.38,5.36c-0.93,3.91-1.22,7.86-1.38,11.23
						c-0.04,0.95-0.07,1.92-0.08,2.87c-0.02,1.06,0,1.95,0.06,2.73c0.12,1.9,0.3,3.78,0.53,5.62l0.02,0.12
						c0.25,1.83,0.48,3.57,0.87,5.2c0.42,1.71,0.9,3.39,1.41,4.98c0.52,1.59,1.09,3.13,1.69,4.56c0.54,1.18,1.21,2.41,2.1,3.86
						c1.1,1.74,2.13,3.12,3.16,4.2c1.88-3.08,3.35-7.57,4.32-13.15l0.13-0.81l0.26-1.66c0.15-0.85,0.28-1.71,0.41-2.58
						c0.24-1.71,0.45-3.48,0.61-5.26c0.11-1.06,0.17-2.08,0.24-3.17c0.05-0.76,0.1-1.52,0.16-2.3
						C217.07,516.48,217.19,514.63,217.25,512.81z"/>
				</g>
				<g>
					<path d="M146.84,505.84c0.81,1.76,1.73,3.58,2.75,5.41c1.06,1.8,2.32,3.62,3.52,5.31c1.27,1.77,2.63,3.55,4.06,5.3
						c1.4,1.67,2.99,3.31,4.63,4.97c1.6,1.61,3.28,3.21,4.97,4.73c1.72,1.49,3.58,2.9,5.32,4.21c1.8,1.33,3.63,2.61,5.44,3.8
						c1.83,1.19,3.89,2.28,5.54,3.16c1.83,0.95,3.66,1.83,5.44,2.6c0.88,0.38,1.77,0.75,2.63,1.08c0.87,0.32,1.79,0.61,2.58,0.86
						c4.29,1.31,8.11,1.97,11.34,1.97c1.08,0,2.1-0.08,3.05-0.23c-0.74-1.49-1.65-2.95-2.73-4.36c-0.85-1.14-1.87-2.3-2.93-3.48
						c-1.03-1.22-2.17-2.44-3.39-3.67c-1.2-1.2-2.53-2.44-3.95-3.69c-0.53-0.48-1.05-0.95-1.58-1.43c-0.88-0.81-1.79-1.64-2.74-2.44
						c-1.48-1.27-3.05-2.56-4.68-3.85c-0.87-0.66-1.7-1.35-2.48-2l-1.56-1.25l-0.88-0.7c-2.1-1.66-4.38-3.32-6.59-4.93
						c-1.25-0.91-2.5-1.82-3.72-2.73c-1.7-1.23-3.46-2.44-5.2-3.6l-5.27-3.42c-3.52-2.26-6.91-4.2-10.09-5.75
						c-0.83-0.4-1.65-0.79-2.45-1.14c-0.77-0.35-1.57-0.71-2.36-1.03c-0.42-0.17-0.84-0.34-1.26-0.49c0.14,0.52,0.29,1.05,0.47,1.57
						C145.32,502.3,146.02,504.05,146.84,505.84z"/>
				</g>
			</g>
			<g>
				<g>
					<path d="M430.84,206.55c-1.69-1.65-3.68-3.22-6.48-5.11c-2.56-1.71-5.09-3.19-7.52-4.4c-2.62-1.22-5.33-2.29-8.03-3.18
						c-1.35-0.44-2.67-0.86-3.97-1.16c-1.28-0.28-2.59-0.52-3.85-0.7c-2.09-0.3-4.06-0.45-5.86-0.45c-0.4,0-0.79,0.01-1.17,0.02
						c-1.03,0.06-2.06,0.21-3.03,0.44c0.5,0.68,1.1,1.38,1.8,2.09c0.69,0.7,1.47,1.41,2.34,2.12c0.77,0.64,1.79,1.47,2.85,2.24
						c1.99,1.46,4.23,2.9,6.67,4.29c0.67,0.39,1.34,0.75,2.05,1.13c0.56,0.3,1.13,0.6,1.7,0.92c1.24,0.69,2.53,1.36,3.81,2
						c2.53,1.28,5.16,2.36,7.7,3.42l0.13,0.05c2.67,1.14,5.22,2.07,7.62,2.77c0.4,0.11,0.83,0.23,1.27,0.34
						c2.05,0.56,3.98,1.09,5.79,1.37c1.07,0.17,2.09,0.28,3.05,0.32C436.15,212.27,433.81,209.37,430.84,206.55z"/>
				</g>
				<g>
					<path d="M436.06,166.18c-2.17,0-4.14,0.14-6,0.42c-3.16,0.43-6.39,1.06-9.63,1.88c-2.68,0.71-5.57,1.72-9.33,3.25
						c-1.49,0.62-2.96,1.28-4.37,1.96c-1.29,0.62-2.57,1.37-3.8,2.11l-0.22,0.13c-2.58,1.56-4.89,3.19-6.85,4.84
						c-1.13,0.95-1.95,1.71-2.64,2.44c-0.78,0.84-1.48,1.68-2.07,2.5c-0.58,0.8-1.06,1.58-1.43,2.33c0.28,0.01,0.56,0.02,0.86,0.02
						c0.69,0,1.45-0.03,2.31-0.09c2.11-0.11,4.45-0.47,6.99-1.07c1.24-0.29,2.55-0.65,3.88-1.06l0.96-0.27
						c1.04-0.3,2.12-0.6,3.19-0.95c2.74-0.88,5.6-1.95,8.52-3.18l0.02-0.01l0.02-0.01c3.38-1.33,6.1-2.51,8.58-3.71
						c2.54-1.21,5.01-2.55,7.4-3.85l0.79-0.43c3.99-2.24,7.28-4.51,9.81-6.76c-1.28-0.2-2.65-0.33-4.1-0.41
						C437.92,166.21,436.97,166.18,436.06,166.18z"/>
				</g>
			</g>
			<g>
				<g>
					<path d="M395.29,219.46c-0.62-0.91-1.33-1.82-2.12-2.73c-0.86-0.98-1.72-1.88-2.54-2.65c-0.9-0.82-1.9-1.65-2.95-2.46
						c-2.1-1.61-4.46-3.16-7.01-4.61c-1.27-0.75-2.59-1.36-3.84-1.92c-1.32-0.59-2.69-1.16-4.07-1.68
						c-4.88-1.96-10.37-3.2-16.36-3.71c-0.63-0.04-1.31-0.07-1.99-0.07c-1.58,0-3.2,0.12-4.95,0.37c-1.11,0.17-2.09,0.38-2.96,0.64
						c1.69,1.9,4.27,3.88,7.6,5.82c3.45,1.94,8.88,4.74,14.98,6.96c0.83,0.29,1.7,0.61,2.58,0.94c0.52,0.19,1.04,0.39,1.56,0.58
						c1.35,0.49,2.72,0.94,4.04,1.34c1.35,0.41,2.68,0.77,3.97,1.08c0.57,0.13,1.16,0.29,1.74,0.44c0.76,0.2,1.48,0.39,2.18,0.53
						c2.58,0.57,4.96,0.91,7.11,1.01l0.04,0l0.04,0c0.95,0.08,1.8,0.11,2.61,0.11C395.05,219.47,395.17,219.47,395.29,219.46z"/>
				</g>
				<g>
					<path d="M370.98,186.64c1.28-0.78,2.6-1.63,3.9-2.49l3.92-2.67c2.59-1.76,5.03-3.59,7.27-5.44c1.15-0.95,2.24-1.91,3.26-2.85
						c0.98-0.89,1.99-1.82,2.93-2.79c0.88-0.9,1.67-1.79,2.38-2.66c-0.13,0-0.26,0-0.39,0c-1.23,0-2.5,0.07-3.78,0.2
						c-2.76,0.37-5.72,1-8.81,1.88l-0.48,0.14c-1.4,0.41-2.71,0.8-4.02,1.33c-1.53,0.61-3.06,1.26-4.57,1.96
						c-1.5,0.69-2.99,1.43-4.45,2.2c-1.69,0.88-3.01,1.65-4.16,2.43c-5.92,3.87-10.44,7.72-13.44,11.45c-2.48,3-4.12,5.79-4.83,8.2
						c1.02-0.09,2.09-0.27,3.18-0.54c2.14-0.5,4.48-1.42,6.71-2.32C360.24,192.87,365.1,190.09,370.98,186.64z"/>
				</g>
			</g>
			<g>
				<g>
					<path d="M343.56,213.77c-2.71-0.78-5.63-1.56-8.51-1.9c-2.95-0.4-5.88-0.64-8.77-0.7c-0.15,0-0.31,0-0.48,0
						c-2.26,0-4.6,0.19-7.57,0.62c-3.6,0.48-6.91,1.54-9.43,3c2.07,1.48,5.03,2.83,8.73,3.99c2.88,0.92,5.43,1.61,7.8,2.13
						c1.36,0.3,2.76,0.57,4.16,0.81l2.14,0.35l2.22,0.39c2.9,0.47,5.76,0.8,8.5,0.98c2.6,0.21,5.1,0.4,7.42,0.4
						c0.26,0,0.51,0,0.76-0.01c1.14-0.01,2.32-0.07,3.74-0.18l0.04,0l0.04,0c1.21-0.05,2.37-0.15,3.44-0.3
						c1.02-0.14,1.99-0.33,2.88-0.56c-2.39-2.19-5.55-4.26-9.28-6.08C348.76,215.42,345.96,214.5,343.56,213.77z"/>
				</g>
				<g>
					<path d="M322.79,201.93c2.2-1.8,4.42-3.82,6.63-6.01c0.72-0.74,1.47-1.48,2.21-2.23c1.49-1.49,2.9-2.9,4.27-4.42
						c2.14-2.31,4.21-4.9,5.87-6.98c2.84-3.56,5.01-6.87,6.46-9.89c-8.87,1.97-19.76,8.36-27.67,16.44
						c-0.6,0.59-1.17,1.16-1.71,1.72c-0.47,0.5-0.96,1.07-1.43,1.62l-0.1,0.12c-1.01,1.19-1.97,2.39-2.85,3.58
						c-1.97,2.67-3.37,4.88-4.4,6.93c-1.71,3.47-2.65,6.57-2.77,9.1c2.94-0.99,6.17-2.98,9.04-4.9c2.02-1.38,4.08-3.1,6.26-4.93
						L322.79,201.93z"/>
				</g>
			</g>
			<g>
				<path d="M431.75,183.91c-9.9,0-18.33,1.59-23.28,4.33c6.04,4.76,19.62,7.96,34.51,7.96c10.24,0,19.24-1.54,25.38-4.28
					C459.99,187.06,445.86,183.91,431.75,183.91z"/>
			</g>
		</g>
		<g>
			<path d="M415.93,653.99c-66.8,0-129.62-24.27-176.87-68.35c-47.3-44.12-73.35-102.8-73.35-165.22s26.05-121.1,73.35-165.22
				c47.25-44.08,110.07-68.35,176.87-68.35c1.36,0,2.45,1.1,2.45,2.45s-1.1,2.45-2.45,2.45c-65.56,0-127.18,23.81-173.52,67.03
				c-46.29,43.18-71.79,100.58-71.79,161.63c0,61.05,25.49,118.45,71.79,161.63c46.34,43.23,107.96,67.03,173.52,67.03
				s127.18-23.81,173.52-67.03c46.29-43.18,71.79-100.58,71.79-161.63c0-41.58-12.09-82.28-34.96-117.72
				c-0.74-1.14-0.41-2.66,0.73-3.39c1.14-0.73,2.66-0.41,3.39,0.73c23.39,36.23,35.75,77.86,35.75,120.38
				c0,62.42-26.05,121.1-73.35,165.22C545.55,629.71,482.74,653.99,415.93,653.99z"/>
		</g>
		<g>
			<g>
				<path d="M524.72,208.92c-0.13,0-0.26-0.03-0.39-0.08c-45.08-19.22-87.87-17.08-88.29-17.06c-0.56,0.02-1.02-0.39-1.05-0.94
					c-0.03-0.55,0.39-1.02,0.94-1.05c0.43-0.02,43.66-2.19,89.19,17.21c0.51,0.22,0.74,0.8,0.53,1.31
					C525.48,208.7,525.11,208.92,524.72,208.92z"/>
			</g>
			<g>
				<path d="M129.31,428.67c-0.46,0-0.88-0.32-0.98-0.79l-12.47-57.67c-0.12-0.54,0.23-1.07,0.77-1.19
					c0.54-0.11,1.07,0.23,1.19,0.77l12.47,57.67c0.12,0.54-0.23,1.07-0.77,1.19C129.45,428.66,129.38,428.67,129.31,428.67z"/>
			</g>
			<g>
				<path d="M214.66,426.82c-0.16,0-0.32-0.04-0.47-0.12c-0.49-0.26-0.67-0.87-0.41-1.35l27.86-52.01c0.26-0.49,0.87-0.67,1.35-0.41
					s0.67,0.87,0.41,1.35l-27.86,52.01C215.36,426.63,215.01,426.82,214.66,426.82z"/>
			</g>
			<g>
				<path d="M213.83,481.56c-0.1,0-0.2-0.01-0.3-0.05c-0.53-0.17-0.82-0.73-0.65-1.26l17.9-56.23c0.17-0.53,0.73-0.82,1.26-0.65
					c0.53,0.17,0.82,0.73,0.65,1.26l-17.9,56.23C214.64,481.28,214.25,481.56,213.83,481.56z"/>
			</g>
			<g>
				<path d="M212.66,385.8c-0.21,0-0.43-0.07-0.61-0.21c-0.44-0.34-0.51-0.97-0.17-1.4l36.3-46.52c0.34-0.44,0.97-0.51,1.4-0.17
					c0.44,0.34,0.51,0.97,0.17,1.4l-36.3,46.52C213.25,385.67,212.96,385.8,212.66,385.8z"/>
			</g>
			<g>
				<path d="M221.38,349.87c-0.26,0-0.52-0.1-0.72-0.31c-0.38-0.4-0.37-1.03,0.03-1.41l42.49-40.94c0.4-0.38,1.03-0.37,1.41,0.03
					c0.38,0.4,0.37,1.03-0.03,1.41l-42.49,40.94C221.88,349.77,221.63,349.87,221.38,349.87z"/>
			</g>
			<g>
				<path d="M239.57,307.75c-0.35,0-0.69-0.19-0.88-0.51c-0.27-0.48-0.09-1.09,0.39-1.36l51.58-28.65c0.48-0.27,1.09-0.09,1.36,0.39
					c0.27,0.48,0.09,1.09-0.39,1.36l-51.58,28.65C239.9,307.71,239.73,307.75,239.57,307.75z"/>
			</g>
			<g>
				<path d="M261.63,278.85c-0.46,0-0.87-0.32-0.97-0.78c-0.12-0.54,0.22-1.07,0.76-1.19l67.18-15.05c0.55-0.12,1.07,0.22,1.19,0.76
					c0.12,0.54-0.22,1.07-0.76,1.19l-67.18,15.05C261.77,278.84,261.7,278.85,261.63,278.85z"/>
			</g>
			<g>
				<path d="M294.64,258.68c-0.5,0-0.93-0.38-0.99-0.89c-0.06-0.55,0.33-1.04,0.88-1.11l68.39-7.86c0.56-0.06,1.04,0.33,1.11,0.88
					s-0.33,1.04-0.88,1.11l-68.39,7.86C294.72,258.68,294.68,258.68,294.64,258.68z"/>
			</g>
			<g>
				<path d="M328.88,240.51c-0.5,0-0.93-0.38-0.99-0.89c-0.06-0.55,0.33-1.04,0.88-1.11l68.39-7.86c0.55-0.06,1.04,0.33,1.11,0.88
					c0.06,0.55-0.33,1.04-0.88,1.11L329,240.5C328.96,240.5,328.92,240.51,328.88,240.51z"/>
			</g>
			<g>
				<path d="M135.74,371.51c-0.5,0-0.93-0.37-0.99-0.88l-6.86-58.61c-0.06-0.55,0.33-1.05,0.88-1.11c0.55-0.07,1.05,0.33,1.11,0.88
					l6.86,58.61c0.06,0.55-0.33,1.05-0.88,1.11C135.82,371.51,135.78,371.51,135.74,371.51z"/>
			</g>
			<g>
				<path d="M156.92,323.46c-0.02,0-0.05,0-0.07,0c-0.55-0.04-0.96-0.52-0.92-1.07l4.34-58.85c0.04-0.55,0.53-0.97,1.07-0.92
					c0.55,0.04,0.96,0.52,0.92,1.07l-4.34,58.85C157.88,323.06,157.44,323.46,156.92,323.46z"/>
			</g>
			<g>
				<path d="M180.72,269.6c-0.11,0-0.22-0.02-0.33-0.06c-0.52-0.18-0.8-0.75-0.62-1.27l19.26-55.77c0.18-0.52,0.75-0.8,1.27-0.62
					c0.52,0.18,0.8,0.75,0.62,1.27l-19.26,55.77C181.52,269.34,181.13,269.6,180.72,269.6z"/>
			</g>
			<g>
				<path d="M218.94,235.36c-0.11,0-0.22-0.02-0.33-0.06c-0.52-0.18-0.8-0.75-0.62-1.27l17.08-49.45c0.18-0.52,0.75-0.8,1.27-0.62
					c0.52,0.18,0.8,0.75,0.62,1.27l-17.08,49.45C219.74,235.1,219.35,235.36,218.94,235.36z"/>
			</g>
			<g>
				<path d="M263.31,206.33c-0.23,0-0.47-0.08-0.66-0.25c-0.42-0.36-0.46-1-0.09-1.41l42.99-49.03c0.37-0.42,1-0.46,1.41-0.09
					c0.42,0.36,0.46,1,0.09,1.41l-42.99,49.03C263.86,206.21,263.58,206.33,263.31,206.33z"/>
			</g>
			<g>
				<path d="M309.55,182.28c-0.28,0-0.56-0.12-0.76-0.35c-0.36-0.42-0.31-1.05,0.11-1.41l49.66-42.27c0.42-0.36,1.05-0.31,1.41,0.11
					c0.36,0.42,0.31,1.05-0.11,1.41l-49.66,42.27C310.01,182.2,309.77,182.28,309.55,182.28z"/>
			</g>
			<g>
				<path d="M391.41,170.12c-0.37,0-0.73-0.21-0.9-0.56c-0.24-0.5-0.04-1.1,0.46-1.34l58.64-28.53c0.5-0.24,1.1-0.03,1.34,0.46
					c0.24,0.5,0.04,1.1-0.46,1.34l-58.64,28.53C391.7,170.09,391.55,170.12,391.41,170.12z"/>
			</g>
			<g>
				<path d="M405.32,225.81c-25.72,0-47.36-2.01-47.62-2.03c-0.55-0.05-0.95-0.54-0.9-1.09c0.05-0.55,0.56-0.95,1.09-0.9
					c0.33,0.03,33.43,3.11,66.38,1.62c0.54-0.02,1.02,0.4,1.04,0.95c0.02,0.55-0.4,1.02-0.95,1.04
					C417.94,225.7,411.51,225.81,405.32,225.81z"/>
			</g>
			<g>
				<path d="M441.35,221.48c-25.72,0-47.36-2.01-47.62-2.03c-0.55-0.05-0.95-0.54-0.9-1.09c0.05-0.55,0.55-0.95,1.09-0.9
					c0.33,0.03,33.43,3.1,66.38,1.62c0.56-0.01,1.02,0.4,1.04,0.95c0.02,0.55-0.4,1.02-0.95,1.04
					C453.97,221.36,447.54,221.48,441.35,221.48z"/>
			</g>
			<g>
				<path d="M146.85,502.28c-0.25,0-0.5-0.09-0.69-0.28c-0.51-0.49-12.59-12.42-22.04-44.97c-0.15-0.53,0.15-1.09,0.68-1.24
					c0.54-0.16,1.08,0.15,1.24,0.68c9.28,31.96,21.39,43.97,21.51,44.09c0.4,0.38,0.41,1.02,0.02,1.41
					C147.38,502.17,147.12,502.28,146.85,502.28z"/>
			</g>
		</g>
		<g>
			<path d="M663.7,411.61c0-30.69-5.96-60.03-16.81-87.01l-0.01,0h0.01c-6.59-17.69-14.45-34.91-22.78-51.84
				c-1.7-3.45-3.66-6.79-5.7-10.04c-1.54-2.45-8.57-14.93-12.48-10.26c-2.55,3.04-0.54,10.61,1.34,13.57
				c-0.02-0.03-5.38-8.45-5.38-8.45c-4.31-4.87-6.85-7.54-12.02-8.86c-6.23-1.59-3.95,7.24-2.49,10.25c0.97,2,2.6,5.75,4.54,7.06
				c0,0-7.93-5.34-7.93-5.34c-3.61-2.37-7.48-4.35-11.52-5.9c-2.13-0.82-4.94-2.13-7.26-2.05c-2.84,0.1-3.52,2.25-2.79,4.68
				c0.37,1.22,1,2.38,1.72,3.42c1.94,2.79,5.24,5.04,7.63,7.47c2.7,2.75,5.29,5.62,7.83,8.52c3.94,4.51,7.77,9.12,11.5,13.81
				c0.27,0.34,0.54,0.68,0.81,1.02c0,0-6.19-5.53-20.22-14.33c-0.09-0.06-0.18-0.11-0.27-0.17c-3.9-2.42-12.11-7.37-16.33-2.82
				c-4.5,4.86,3.08,10.55,6.17,13.86c2.16,2.32,4.38,4.58,6.66,6.79l-0.01,0.01c8.89,8.57,17,17.88,24.24,27.84
				c0.61,0.93,1.64,2.9,0.29,3.9c0,0-1.38-0.63-7.43-5.13s-15.91-14.19-24.78-8.93c0,0-4.5,3.32,4.42,12.56
				c8.93,9.24,27.64,28.47,39.98,46.77c0,0,26.2,30.2,24.29,102.52C613.46,573.09,526.75,649,421.25,651.47
				C555.63,648.73,663.7,542.4,663.7,411.61z"/>
			<path d="M421.25,651.47c-1.77,0.04-3.54,0.07-5.32,0.07C417.71,651.54,419.48,651.51,421.25,651.47z"/>
		</g>
		<g>
			<g>
				<path d="M249.91,478.61c-0.78,0.06-1.47,0.06-1.78-0.04c-1.45-0.48-1.55-1.24-1.61-2.6c-0.09-2.41,1.83-4.96,2.69-7.12
					c1.22-3.09,2.46-6.16,3.72-9.23c0.45-1.11,1.02-2.17,1.46-3.29c1.37-3.52,2.32-7.28,4.15-10.54c2.63-4.68,3.09-9.99,5.13-14.84
					c4.29-10.2,7.68-19.57,13.48-29.08c2.54-4.15,8.16-3.69,11.4-0.6c1.86,1.77,2.28,5.54,3.09,7.95c1.34,3.99,2.44,8.55,4.24,12.34
					c1.57,3.3,2.4,6.71,3.65,10.18c1.37,3.78,2.64,7.59,3.96,11.39c1.4,3.99,2.96,7.93,4.18,11.97c1.03,3.4,3.89,9.36,1.74,12.79
					c-3.64,5.82-6.8-0.9-8.07-4.55c-2.59-7.45-2.99-15.55-7.14-22.47c-1.68-2.8-8.24-0.57-10.54,0.03
					c-5.13,1.34-10.17,2.6-15.39,3.62c-0.79,0.16-1.71,0.74-2.16,1.41c-3.09,4.57-4.92,10.51-6.52,15.78
					c-1.12,3.69-2.66,7.53-3.83,11.21C254.6,476.59,253.93,478.28,249.91,478.61z M268.94,437.97c0.2,0.14,0.41,0.28,0.61,0.42
					c0.61-0.24,1.21-0.55,1.84-0.72c4.86-1.31,9.66-3.04,14.61-3.76c1.56-0.23,3.41-0.18,4.81-0.95c0.13-0.07,0.27-0.16,0.33-0.3
					c0.07-0.16,0.03-0.34-0.02-0.51c-0.53-1.94-1.08-3.85-1.67-5.76c-0.9-2.96-1.99-5.77-2.84-8.75c-0.27-0.95-1.18-5.72-2.51-5.81
					c-0.25-0.02-0.5-0.03-0.76-0.05C278.55,420.52,273.75,429.24,268.94,437.97z"/>
			</g>
			<g>
				<path d="M403.62,458.07c-0.59,0.46-1.53,0.63-2.5,0.65c-0.39,0.01-0.8-0.01-1.15-0.19c-0.44-0.22-0.72-0.66-0.96-1.08
					c-2.11-3.74-2.89-8.61-3.88-12.75c-1.1-4.57-2.03-9.19-2.98-13.79c-0.3-1.45-0.38-3.69-1.66-4.71c-1.1-0.87-2.54,0.1-3.33,0.93
					c-2.18,2.29-4.38,4.55-6.6,6.79c-2.46,2.48-5.45,7.21-9.42,7.02c-0.95-0.05-1.85-0.45-2.71-0.86c-3.57-1.73-6.98-3.76-10.2-6.07
					c-3.12-2.24-5.24-4.74-7.85-7.47c-0.38-0.4-2.84-2.26-2.83-2.67c-0.06,6.65,1.35,13.26,1.66,19.92
					c0.18,3.87,0.39,7.74,0.66,11.61c0.28,3.89,0.74,7.77,0.97,11.66c0.1,1.63-3.84,3.5-5.11,2.52c-0.82-0.64-1.13-1.73-1.33-2.75
					c-2.13-10.64-1.46-21.76-2.38-32.55c-0.34-3.97-0.64-8.2-0.71-12.29c-0.03-1.91-0.56-5.68,0.51-7.37
					c0.29-0.45,0.76-0.75,1.24-0.99c2.51-1.25,4.94-1.91,6.96,0.29c2.44,2.65,4.22,5.6,6.88,8.06c2.85,2.62,5.88,5.06,9.05,7.28
					c0.86,0.6,1.78,1.21,2.83,1.3c3.18,0.27,6.5-3.67,8.54-5.75c4.06-4.14,7-9,10.79-13.35c0.77-0.89,2.16-1.9,3.15-1.79
					c2.72,0.3,3.54,4.19,3.99,6.33c0.3,1.42,0.41,2.87,0.67,4.29c0.71,3.79,1.55,7.81,2.28,11.67c0.51,2.72,1.21,5.4,1.89,8.08
					c0.61,2.88,1.54,5.72,2.27,8.57c0.62,2.44,0.85,4.83,1.67,7.2C404.42,456.91,404.19,457.62,403.62,458.07z"/>
			</g>
			<path d="M531.19,404.15c-2.24-0.45-4.66,0.94-5.95,2.42c-0.7,0.81-1.18,1.72-1.41,2.71c-0.19,0.79-0.38,1.58-0.57,2.36
				c-0.71,2.91-1.44,5.92-1.88,8.94c-0.11,0.74-0.27,1.48-0.43,2.19c-0.19,0.87-0.39,1.76-0.49,2.68c-0.3,2.73-0.84,5.57-1.71,8.94
				c-0.09,0.34-0.16,0.73-0.23,1.13c-0.27,1.49-0.54,3.04-1.93,3.4c-1.15,0.3-2.71-0.37-3.67-1.19c-2.48-2.12-4.34-4.89-6.14-7.57
				c-0.91-1.35-1.85-2.75-2.86-4.05c-2.01-2.6-3.75-5.62-4.88-7.67c-1.12-2.04-2.71-3.85-4.24-5.61c-0.8-0.92-1.62-1.86-2.36-2.81
				l-0.21-0.28c-1.46-1.9-3.66-4.76-6.55-4.18c-1.52,0.31-2.97,1.34-4.08,2.93c-1.61,2.29-1.86,5.98-2.07,9.24
				c-0.07,1.08-0.14,2.11-0.25,2.98c-0.34,2.6-0.58,5.44-0.74,8.7c-0.17,3.41-0.22,6.87-0.27,10.22c-0.04,2.41-0.07,4.81-0.15,7.22
				c-0.04,1.11,0.25,2.02,0.82,2.63c0.5,0.53,1.18,0.81,2.03,0.84c0.03,0,0.06,0,0.08,0c1.02,0,2.47-0.55,3.07-1.41
				c0.68-0.96,0.67-2.46,0.66-3.55c-0.01-0.96-0.09-1.93-0.16-2.87c-0.11-1.29-0.22-2.63-0.13-3.92c0.28-4.25,0.74-8.71,1.37-13.25
				c0.02-0.14,0.04-0.39,0.08-0.72c0.49-4.98,1.17-7.76,2.03-8.25c0.13-0.07,0.25-0.08,0.4-0.01c1.39,0.64,2.35,1.81,3.3,3.06
				c1.45,1.9,2.82,3.94,4.16,5.92c0.89,1.32,1.78,2.63,2.69,3.91c0.49,0.7,1.02,1.38,1.54,2.05c0.88,1.15,1.79,2.34,2.55,3.59
				c0.58,0.97,1.34,1.78,2.07,2.56c0.61,0.65,1.23,1.31,1.73,2.05c1.1,1.62,2.45,2.85,3.88,4.16c0.3,0.27,0.59,0.54,0.89,0.82
				c2.49,2.33,7.77,4.12,10.71,1.75c2.27-1.83,3.26-6.92,4.05-11.01c0.31-1.6,0.6-3.12,0.92-4.14c0.79-2.55,1.42-5.2,2.03-7.76
				c0.49-2.07,1-4.21,1.59-6.27c0.24-0.83,0.51-1.64,0.78-2.46c0.27-0.82,0.54-1.64,0.78-2.48c0.32-1.13,0.52-2.44,0.7-3.6
				l0.13-0.82C533.16,405.71,532.56,404.42,531.19,404.15z"/>
			<path d="M455.48,443.05c-0.16-0.33-0.31-0.64-0.42-0.89c-0.75-1.72-1.61-3.41-2.44-5.04c-0.71-1.39-1.44-2.82-2.09-4.26
				c-0.73-1.62-1.39-3.31-2.02-4.95l-0.46-1.2c-0.53-1.37-1.24-2.62-1.93-3.84c-0.29-0.52-0.58-1.04-0.86-1.56
				c-0.25-0.48-0.49-0.96-0.71-1.46c-1.19-2.69-2.41-5.29-3.63-7.74c-0.82-1.65-1.45-2.47-3.59-2.91c-1.61-0.33-3.33-0.09-4.86,0.65
				c-1.33,0.65-2.33,2.57-2.59,4.04c-1.45,8.05-2.31,15.96-3.21,24.74c-0.08,0.8-0.19,1.57-0.3,2.33c-0.32,2.32-0.63,4.52-0.21,7.05
				c0.15,0.9,1.43,2.32,2.51,2.32c0.06,0,0.12,0,0.18-0.01c1.01-0.16,2.39-1.07,2.81-2.18c0.35-0.91,0.57-1.85,0.78-2.75
				c0.07-0.31,0.14-0.61,0.22-0.92c0.12-0.5,0.15-1.02,0.18-1.53c0.03-0.58,0.07-1.18,0.25-1.54c0.14-0.27,0.43-0.33,1.24-0.35
				c0.26-0.01,0.51-0.02,0.75-0.05c0.81-0.1,1.61-0.28,2.39-0.45c0.56-0.12,1.12-0.25,1.68-0.34c1.76-0.3,3.56-0.55,5.3-0.79
				c0.74-0.1,1.48-0.21,2.22-0.31c0.06-0.01,0.11-0.02,0.09-0.04c0.02,0.01,0.06,0.05,0.17,0.17c1.44,1.63,2.57,3.71,3.67,6.74
				c0.08,0.23,0.16,0.55,0.24,0.9c0.21,0.88,0.42,1.79,0.9,2.36c0.6,0.71,1.7,0.92,2.86,0.56c1.27-0.4,2.16-1.32,2.26-2.36
				C456.98,446.13,456.15,444.43,455.48,443.05z M434.24,433.87c0.07-0.27,0.13-0.49,0.15-0.65c0.16-1,0.28-2.02,0.38-3.01
				c0.05-0.49,0.11-0.99,0.17-1.48l0.66-5.36c0.03-0.24,0.04-0.61,0.06-1.03c0.03-0.78,0.07-1.84,0.26-2.54v0
				c0.08-0.31,0.16-0.42,0.16-0.42c0.04-0.01,0.21,0.01,0.35,0.13c1.06,0.92,2.04,2.39,2.99,4.5c0.8,1.79,1.66,3.44,2.5,5.06
				c0.29,0.52,0.56,1.05,0.82,1.57c0.47,0.94,0.96,1.9,1.6,2.85c0.02,0.02,0.05,0.07,0.08,0.11c-0.03,0.02-0.07,0.05-0.13,0.08
				c-3.33,1.82-8.14,1.83-10.34,1.73C433.95,434.99,434.15,434.2,434.24,433.87z"/>
			<path d="M578.25,422.06c-1.07-2.43-2.62-4.77-4.6-6.96c-1.71-1.89-3.56-2.07-5.81-1.77c-4.29,0.58-8.92,3.19-11.51,6.48
				c-3.18,4.04-4.44,10.89-2.83,15.27c0.83,2.26,3.28,7.54,7.98,7.81c0.36,0.02,0.99,0.05,1.79,0.05c3.71,0,11.22-0.57,14.29-4.95
				C581.69,432.12,579.77,425.49,578.25,422.06z M561.04,435.88c-3.12-1.46-2.59-5.51-2.22-7.19c0.34-1.52,2.24-8.96,7.33-8.96
				c0.12,0,0.25,0,0.38,0.01c0.99,0.07,1.83,0.22,2.58,0.47c2.99,0.99,4.96,3.45,5.16,6.41c0.11,1.75-0.17,3.4-0.81,4.77
				c-0.83,1.77-2.26,3.07-4.14,3.78C566.79,436.12,563.56,437.06,561.04,435.88z"/>
		</g>
	</g>
</g>
<g id="Layer_3" class="st0">
</g>
</svg>
