<?xml version="1.0" encoding="utf-8"?>
<!-- Generator: Adobe Illustrator 24.3.0, SVG Export Plug-In . SVG Version: 6.00 Build 0)  -->
<svg version="1.1" xmlns="http://www.w3.org/2000/svg" xmlns:xlink="http://www.w3.org/1999/xlink" x="0px" y="0px"
	 viewBox="0 0 792 792" style="enable-background:new 0 0 792 792;" xml:space="preserve">
<style type="text/css">
	.st0{display:none;}
	.st1{display:inline;fill:none;stroke:#000000;stroke-width:5;stroke-miterlimit:10;}
	.st2{display:inline;fill:none;stroke:#000000;stroke-width:4.3483;stroke-miterlimit:10;}
	.st3{display:inline;}
</style>
<g id="Layer_1__x2B__Levels_1_xA0_Image_1_">
</g>
<g id="Layer_2">
	<g>
		<g>
			<path d="M86.96,471.39c-1.48,0.12-2.79,0.12-3.36-0.07c-2.74-0.9-2.94-2.35-3.04-4.92c-0.17-4.56,3.46-9.37,5.08-13.47
				c2.3-5.84,4.66-11.65,7.04-17.46c0.86-2.1,1.94-4.11,2.76-6.23c2.6-6.66,4.38-13.77,7.85-19.94c4.97-8.85,5.84-18.9,9.7-28.07
				c8.12-19.3,14.52-37.03,25.5-55c4.8-7.85,15.44-6.97,21.56-1.14c3.52,3.35,4.32,10.48,5.85,15.05
				c2.53,7.55,4.61,16.17,8.02,23.33c2.98,6.25,4.53,12.69,6.91,19.25c2.59,7.15,4.98,14.37,7.5,21.54c2.64,7.55,5.59,15,7.9,22.64
				c1.94,6.43,7.35,17.7,3.29,24.19c-6.88,11-12.86-1.69-15.27-8.6c-4.91-14.1-5.65-29.42-13.5-42.5
				c-3.18-5.31-15.58-1.08-19.95,0.06c-9.71,2.53-19.23,4.91-29.12,6.85c-1.5,0.29-3.23,1.41-4.08,2.66
				c-5.84,8.64-9.31,19.89-12.34,29.86c-2.12,6.98-5.04,14.24-7.24,21.2C95.82,467.57,94.57,470.77,86.96,471.39z M122.96,394.52
				c0.39,0.26,0.77,0.53,1.16,0.79c1.16-0.46,2.29-1.03,3.49-1.35c9.19-2.48,18.27-5.75,27.63-7.1c2.95-0.43,6.44-0.34,9.09-1.8
				c0.25-0.14,0.51-0.3,0.62-0.56c0.13-0.3,0.05-0.64-0.04-0.96c-1.01-3.66-2.05-7.28-3.15-10.9c-1.7-5.6-3.77-10.91-5.36-16.55
				c-0.51-1.8-2.23-10.82-4.74-10.99c-0.48-0.03-0.95-0.06-1.43-0.1C141.14,361.49,132.05,378.01,122.96,394.52z"/>
		</g>
		<g>
			<path d="M377.72,432.53c-1.11,0.87-2.89,1.19-4.72,1.24c-0.74,0.02-1.52-0.03-2.18-0.37c-0.82-0.42-1.36-1.24-1.81-2.05
				c-3.99-7.07-5.46-16.29-7.34-24.12c-2.08-8.65-3.84-17.38-5.64-26.09c-0.56-2.74-0.72-6.99-3.13-8.9
				c-2.08-1.65-4.8,0.18-6.3,1.76c-4.12,4.32-8.28,8.6-12.49,12.84c-4.66,4.69-10.31,13.64-17.82,13.28
				c-1.8-0.09-3.5-0.85-5.12-1.64c-6.75-3.26-13.21-7.11-19.3-11.49c-5.91-4.25-9.91-8.96-14.85-14.12
				c-0.73-0.76-5.37-4.27-5.36-5.05c-0.12,12.57,2.55,25.07,3.13,37.68c0.34,7.32,0.73,14.64,1.26,21.95
				c0.53,7.36,1.39,14.69,1.84,22.05c0.19,3.09-7.27,6.61-9.67,4.76c-1.56-1.2-2.13-3.27-2.52-5.2
				c-4.04-20.12-2.76-41.17-4.51-61.57c-0.65-7.51-1.2-15.52-1.34-23.24c-0.06-3.61-1.07-10.74,0.96-13.93
				c0.55-0.86,1.44-1.43,2.35-1.88c4.75-2.36,9.35-3.61,13.17,0.54c4.61,5.01,7.98,10.6,13.02,15.24
				c5.39,4.96,11.12,9.57,17.12,13.77c1.63,1.14,3.37,2.29,5.36,2.45c6.01,0.51,12.3-6.94,16.16-10.87
				c7.68-7.83,13.24-17.02,20.41-25.25c1.47-1.68,4.08-3.59,5.95-3.39c5.14,0.56,6.7,7.93,7.55,11.97c0.57,2.69,0.77,5.42,1.27,8.12
				c1.33,7.17,2.94,14.78,4.31,22.07c0.97,5.14,2.28,10.22,3.57,15.29c1.15,5.46,2.92,10.82,4.29,16.22
				c1.18,4.62,1.62,9.13,3.17,13.62C379.23,430.33,378.79,431.69,377.72,432.53z"/>
		</g>
		<path d="M619.02,330.54c-4.26-0.85-8.81,1.78-11.25,4.58c-1.33,1.53-2.23,3.25-2.67,5.12c-0.35,1.49-0.72,2.99-1.08,4.48
			c-1.34,5.5-2.73,11.2-3.54,16.91c-0.2,1.4-0.51,2.79-0.81,4.14c-0.37,1.64-0.74,3.33-0.93,5.06c-0.56,5.16-1.59,10.53-3.23,16.91
			c-0.17,0.66-0.3,1.38-0.43,2.14c-0.5,2.82-1.03,5.74-3.66,6.43c-2.16,0.57-5.13-0.7-6.94-2.25c-4.69-4.02-8.21-9.25-11.61-14.31
			c-1.72-2.55-3.49-5.2-5.4-7.66c-3.82-4.92-7.1-10.63-9.24-14.5c-2.13-3.85-5.12-7.28-8.01-10.61c-1.51-1.73-3.07-3.52-4.46-5.32
			l-0.4-0.53c-2.76-3.59-6.92-9.01-12.4-7.91c-2.87,0.58-5.61,2.54-7.72,5.53c-3.05,4.32-3.51,11.31-3.92,17.47
			c-0.14,2.05-0.26,3.98-0.48,5.63c-0.65,4.91-1.11,10.3-1.41,16.46c-0.31,6.45-0.41,13-0.51,19.34c-0.07,4.48-0.14,9.11-0.28,13.66
			c-0.07,2.1,0.47,3.82,1.55,4.98c0.94,1,2.23,1.54,3.84,1.59c0.05,0,0.1,0,0.16,0c1.93,0,4.68-1.04,5.81-2.67
			c1.28-1.83,1.26-4.65,1.24-6.72c-0.01-1.81-0.16-3.65-0.31-5.42c-0.2-2.44-0.41-4.97-0.25-7.41c0.54-8.05,1.41-16.48,2.58-25.07
			c0.04-0.26,0.08-0.73,0.14-1.37c0.92-9.42,2.21-14.67,3.84-15.61c0.25-0.14,0.47-0.14,0.76-0.01c2.62,1.21,4.45,3.43,6.23,5.78
			c2.74,3.61,5.35,7.47,7.88,11.21c1.64,2.44,3.35,4.95,5.06,7.37c0.94,1.32,1.94,2.62,2.91,3.89c1.67,2.17,3.39,4.42,4.82,6.79
			c1.1,1.83,2.54,3.36,3.92,4.84c1.14,1.22,2.33,2.48,3.28,3.88c2.08,3.06,4.64,5.4,7.35,7.88c0.56,0.51,1.12,1.02,1.68,1.55
			c4.72,4.41,14.71,7.8,20.26,3.32c4.29-3.46,6.16-13.09,7.66-20.83c0.59-3.03,1.14-5.89,1.75-7.83c1.5-4.83,2.69-9.84,3.84-14.69
			c0.93-3.91,1.89-7.96,3-11.86c0.44-1.56,0.96-3.12,1.47-4.64c0.51-1.53,1.03-3.11,1.48-4.7c0.61-2.13,0.99-4.63,1.33-6.83
			c0.08-0.53,0.16-1.05,0.24-1.55C622.75,333.48,621.61,331.06,619.02,330.54z"/>
		<g>
			<path d="M475.81,404.12c-0.3-0.63-0.58-1.2-0.79-1.68c-1.42-3.26-3.05-6.45-4.62-9.54c-1.34-2.62-2.72-5.34-3.95-8.05
				c-1.39-3.06-2.63-6.27-3.82-9.37l-0.87-2.26c-1.01-2.59-2.35-4.97-3.64-7.27c-0.55-0.98-1.11-1.96-1.63-2.96
				c-0.54-1.01-0.98-1.91-1.35-2.75c-2.25-5.09-4.55-10.02-6.86-14.63c-1.56-3.11-2.74-4.67-6.8-5.5c-3.03-0.62-6.3-0.18-9.19,1.23
				c-2.52,1.23-4.41,4.86-4.91,7.65c-2.74,15.23-4.37,30.2-6.08,46.79c-0.16,1.5-0.36,2.99-0.56,4.42c-0.61,4.4-1.19,8.55-0.4,13.34
				c0.29,1.71,2.7,4.39,4.74,4.39c0.12,0,0.23-0.01,0.34-0.03c1.92-0.3,4.51-2.03,5.32-4.12c0.67-1.72,1.08-3.49,1.48-5.19
				c0.14-0.59,0.27-1.17,0.42-1.76c0.24-0.94,0.29-1.93,0.35-2.89c0.06-1.09,0.12-2.22,0.47-2.91c0.26-0.52,0.81-0.62,2.35-0.67
				c0.49-0.01,0.97-0.03,1.41-0.09c1.53-0.19,3.05-0.53,4.51-0.85c1.1-0.24,2.13-0.47,3.18-0.65c3.36-0.57,6.79-1.04,10.12-1.5
				c1.37-0.19,2.74-0.38,4.11-0.58c0.08-0.01,0.15-0.03,0.23-0.03c0.05,0.04,0.13,0.13,0.26,0.27c2.72,3.08,4.86,7.02,6.94,12.76
				c0.14,0.4,0.29,1.03,0.45,1.7c0.39,1.67,0.79,3.39,1.71,4.46c1.14,1.34,3.21,1.74,5.42,1.05c2.4-0.75,4.08-2.5,4.27-4.46
				C478.65,409.95,477.08,406.72,475.81,404.12z M435.63,386.76c0.13-0.5,0.24-0.93,0.29-1.23c0.31-1.9,0.52-3.83,0.73-5.7
				c0.1-0.93,0.2-1.86,0.32-2.78l1.25-10.14c0.06-0.49,0.09-1.17,0.12-1.95c0.06-1.47,0.13-3.49,0.48-4.81
				c0.15-0.58,0.3-0.79,0.29-0.8c0.09-0.03,0.4,0.01,0.67,0.25c2.01,1.73,3.86,4.52,5.66,8.52c1.52,3.39,3.14,6.51,4.74,9.57
				c0.55,0.99,1.05,1.98,1.55,2.96c0.9,1.77,1.82,3.6,3.02,5.39c0.03,0.05,0.09,0.13,0.14,0.21c-0.06,0.04-0.13,0.08-0.23,0.14
				c-6.37,3.48-15.57,3.47-19.56,3.27C435.08,388.88,435.47,387.38,435.63,386.76z"/>
		</g>
		<path d="M708.04,364.42c-2.03-4.6-4.96-9.03-8.71-13.17c-3.23-3.57-6.73-3.92-11-3.34c-8.12,1.11-16.87,6.03-21.76,12.25
			c-6.01,7.64-8.41,20.6-5.35,28.89c1.58,4.27,6.2,14.26,15.1,14.77c0.68,0.04,1.86,0.09,3.38,0.09c7.01,0,21.23-1.08,27.05-9.36
			C714.56,383.44,710.91,370.9,708.04,364.42z M691.16,389.22c-4.79,1.79-10.9,3.56-15.66,1.34c-6.06-2.83-4.75-11.12-4.21-13.6
			c0.64-2.88,4.23-16.96,13.87-16.96c0.24,0,0.48,0.01,0.72,0.03c1.86,0.13,3.46,0.42,4.88,0.9c5.65,1.88,9.39,6.52,9.76,12.13
			c0.22,3.3-0.31,6.42-1.53,9.02v0C697.4,385.47,694.77,387.87,691.16,389.22z"/>
	</g>
</g>
<g id="Layer_3" class="st0">
</g>
</svg>
