<?xml version="1.0" encoding="utf-8"?>
<!-- Generator: Adobe Illustrator 24.3.0, SVG Export Plug-In . SVG Version: 6.00 Build 0)  -->
<svg version="1.1" xmlns="http://www.w3.org/2000/svg" xmlns:xlink="http://www.w3.org/1999/xlink" x="0px" y="0px"
	 viewBox="0 0 792 792" style="enable-background:new 0 0 792 792;" xml:space="preserve">
<style type="text/css">
	.st0{display:none;}
	.st1{display:inline;fill:none;stroke:#000000;stroke-width:5;stroke-miterlimit:10;}
	.st2{display:inline;fill:none;stroke:#000000;stroke-width:4.3483;stroke-miterlimit:10;}
	.st3{display:inline;}
</style>
<g id="Layer_1__x2B__Levels_1_xA0_Image_1_">
</g>
<g id="Layer_2">
	<g>
		<path d="M526.11,200.86c-21.06-8.98-41.62-13.33-57.69-15.43c-1.35,0.55-2.82,1.04-4.4,1.48c16.43,1.84,38.57,6.1,61.3,15.79
			c0.13,0.05,0.26,0.08,0.39,0.08c0.39,0,0.76-0.23,0.92-0.61C526.85,201.67,526.62,201.08,526.11,200.86z"/>
		<path d="M631.4,292.9c-0.74-1.14-2.25-1.46-3.39-0.73c-1.14,0.73-1.47,2.25-0.73,3.39c22.87,35.44,34.96,76.14,34.96,117.72
			c0,61.05-25.49,118.45-71.79,161.63c-46.34,43.23-107.97,67.03-173.52,67.03s-127.18-23.81-173.52-67.03
			c-46.29-43.18-71.79-100.58-71.79-161.63c0-61.04,25.49-118.45,71.79-161.63c45.98-42.89,107.01-66.65,172-67.02
			c-2.6-1.06-4.78-2.26-6.38-3.58c0.8-0.46,1.7-0.89,2.68-1.29c-64.85,1.23-125.63,25.36-171.65,68.29
			c-47.3,44.12-73.35,102.8-73.35,165.22s26.05,121.1,73.35,165.22c47.25,44.08,110.07,68.35,176.87,68.35
			s129.62-24.27,176.87-68.35c47.3-44.12,73.35-102.8,73.35-165.22C667.15,370.76,654.79,329.13,631.4,292.9z"/>
		<g>
			<g>
				<g>
					<g>
						<path d="M298.38,223.23c0.87,0,1.75,0.01,2.61,0.04c1.77,0.05,3.55,0.16,5.24,0.3l0.65,0.06c1.52,0.15,2.96,0.29,4.37,0.58
							l0.03,0.01l0.03,0.01c3.43,0.64,6.68,1.48,9.68,2.49c1.43,0.46,2.91,1.12,4.16,1.7c1.36,0.63,2.64,1.31,3.83,2.01
							c0.55,0.32,1.07,0.65,1.58,0.99c-0.33,0.09-0.68,0.18-1.03,0.26c-0.6,0.14-1.23,0.27-1.88,0.39l-0.06,0.01l-0.06,0.01
							l-0.43,0.09c-0.52,0.11-1.04,0.23-1.59,0.33c-1.31,0.24-2.72,0.45-4.19,0.6c-0.59,0.05-1.19,0.1-1.79,0.15
							c-2.52,0.22-5.13,0.44-7.82,0.52c-0.9,0.04-1.83,0.04-2.82,0.04c-0.77,0-1.54,0-2.31,0.02c-0.83,0.02-1.68,0.03-2.52,0.03
							c-0.84,0-1.69-0.01-2.54-0.03c-1.69-0.04-3.42-0.11-5.14-0.22l-0.06,0l-0.06,0c-1.81-0.06-3.45-0.14-5-0.26
							c-1.65-0.12-3.29-0.28-4.87-0.47c-0.79-0.1-1.58-0.2-2.36-0.32l-0.05-0.01l-0.05-0.01c-0.77-0.09-1.52-0.2-2.23-0.3
							c-3.59-0.54-6.72-1.32-9.2-2.27c0.42-0.28,0.86-0.56,1.33-0.83c1.19-0.69,2.31-1.27,3.42-1.76c1.28-0.51,2.66-1,4.09-1.45
							c3.51-1.09,6.47-1.74,9.3-2.05l0.03,0l0.03,0c1.69-0.22,3.42-0.38,5.14-0.5C296.62,223.31,297.51,223.26,298.38,223.23
							 M298.33,219.73c-0.91,0.03-1.81,0.08-2.71,0.14c-1.8,0.12-3.59,0.3-5.35,0.52c-3.56,0.39-6.87,1.23-9.95,2.18
							c-1.54,0.48-3.02,1-4.42,1.57c-1.37,0.6-2.64,1.27-3.82,1.96c-2.35,1.39-4.33,2.88-5.72,4.53c3.31,2.5,8.7,4.14,14.82,5.06
							c0.77,0.12,1.55,0.22,2.34,0.32c0.81,0.12,1.62,0.23,2.45,0.33c1.65,0.2,3.34,0.37,5.04,0.49c1.7,0.13,3.42,0.21,5.15,0.26
							c1.76,0.11,3.53,0.19,5.28,0.23c0.88,0.02,1.75,0.03,2.62,0.03c0.87,0,1.74-0.01,2.6-0.03c1.72-0.04,3.49,0.01,5.18-0.06
							c3.41-0.1,6.65-0.42,9.8-0.68c1.56-0.16,3.06-0.38,4.51-0.64c0.72-0.13,1.42-0.29,2.12-0.44c0.7-0.13,1.39-0.27,2.06-0.42
							c2.67-0.63,5.05-1.5,7.07-2.64c-1.82-1.82-4.06-3.5-6.64-5.03c-1.29-0.76-2.67-1.48-4.13-2.16c-1.45-0.67-3-1.35-4.57-1.86
							c-3.15-1.06-6.55-1.94-10.11-2.6c-1.8-0.37-3.55-0.51-5.37-0.69c-1.81-0.16-3.64-0.27-5.48-0.32
							C300.18,219.75,299.26,219.73,298.33,219.73L298.33,219.73z"/>
					</g>
				</g>
				<g>
					<g>
						<path d="M309.9,174.99c-0.24,0.53-0.49,1.07-0.76,1.61c-0.67,1.36-1.43,2.78-2.29,4.25c-0.49,0.85-1.01,1.69-1.57,2.59
							c-0.39,0.62-0.78,1.24-1.14,1.85c-1.84,2.96-3.91,5.99-6.17,8.99c-0.61,0.79-1.21,1.61-1.79,2.4
							c-0.56,0.77-1.09,1.5-1.65,2.23c-1.13,1.49-2.3,2.97-3.43,4.35l-1.02,1.21l-0.79,0.94l-0.02,0.02l-0.02,0.02l-0.88,1.09
							l-0.87,1.07c-1.15,1.39-2.32,2.73-3.46,3.98c-0.59,0.63-1.18,1.26-1.76,1.88c-1.78,1.91-3.47,3.72-5.15,5.3
							c-1.1,1.04-2.2,2-3.27,2.85l-0.05,0.04l-0.04,0.04c-1.26,1.08-2.21,1.84-3.1,2.47c-0.58,0.42-1.17,0.81-1.76,1.16
							c-0.01-2.57,0.55-5.68,1.67-9.21c0.23-0.71,0.48-1.44,0.75-2.16c0.29-0.7,0.6-1.43,0.93-2.17c0.68-1.5,1.46-3.05,2.31-4.61
							c0.89-1.62,1.83-3.21,2.8-4.72c1.05-1.53,2.18-3.07,3.37-4.6c1.21-1.55,2.49-3.1,3.81-4.61c1.17-1.34,2.47-2.58,3.83-3.9
							l0.31-0.3c3.5-3.31,6.38-5.68,9.07-7.46l0.03-0.02l0.03-0.02c1.61-1.1,3.22-2.14,4.8-3.07c0.79-0.47,1.57-0.92,2.31-1.31
							c0.79-0.39,1.58-0.76,2.35-1.1C308.17,175.68,309.05,175.32,309.9,174.99 M315.5,169.66c-3.03,0.62-6.29,1.72-9.63,3.21
							c-0.84,0.37-1.68,0.76-2.52,1.18c-0.84,0.44-1.67,0.92-2.5,1.41c-1.67,0.99-3.34,2.06-5,3.2c-3.35,2.22-6.52,4.98-9.55,7.84
							c-1.5,1.45-3,2.87-4.37,4.44c-1.37,1.57-2.69,3.16-3.94,4.77s-2.43,3.21-3.53,4.82c-1.07,1.67-2.05,3.33-2.95,4.97
							c-0.9,1.64-1.71,3.26-2.43,4.85c-0.36,0.79-0.7,1.58-1.01,2.35c-0.3,0.8-0.57,1.59-0.82,2.36c-1.98,6.21-2.42,11.54-1.02,15.4
							c2.09-0.72,4.28-1.86,6.48-3.44c1.11-0.78,2.21-1.69,3.34-2.65c1.15-0.92,2.32-1.94,3.48-3.04c2.33-2.19,4.64-4.76,7.07-7.34
							c1.2-1.32,2.4-2.7,3.58-4.13c0.59-0.72,1.18-1.45,1.78-2.18c0.6-0.71,1.2-1.43,1.81-2.15c1.2-1.46,2.38-2.96,3.54-4.49
							c1.17-1.51,2.28-3.14,3.43-4.62c2.28-3.03,4.43-6.15,6.36-9.27c0.96-1.59,1.92-3.04,2.78-4.55c0.87-1.49,1.67-2.98,2.39-4.45
							C313.72,175.21,314.84,172.35,315.5,169.66L315.5,169.66z"/>
					</g>
				</g>
			</g>
			<g>
				<g>
					<g>
						<path d="M273.74,246.35l0.3,0c3.33,0.11,6.65,0.45,9.85,1.03c0.77,0.14,1.54,0.29,2.24,0.45c0.74,0.17,1.51,0.4,2.17,0.59
							c1.44,0.43,2.82,0.91,4.1,1.43c0.6,0.24,1.18,0.49,1.74,0.75c-0.28,0.12-0.56,0.24-0.85,0.35c-0.51,0.19-1.03,0.39-1.55,0.6
							c-0.77,0.31-1.51,0.59-2.29,0.85c-1.26,0.43-2.63,0.84-4.03,1.19l-1.12,0.27l-1.18,0.29l-0.04,0.01l-0.04,0.01
							c-0.72,0.19-1.47,0.38-2.22,0.56c-1.49,0.35-3.07,0.67-4.67,0.95l-2.54,0.42l-0.05,0.01l-0.05,0.01
							c-0.81,0.16-1.62,0.3-2.44,0.44c-1.63,0.28-3.32,0.52-4.99,0.73l-1.55,0.17l-1.14,0.13l-2.54,0.32
							c-1.67,0.2-3.35,0.36-5.03,0.48c-1,0.08-2.05,0.13-3.07,0.18c-0.65,0.03-1.29,0.06-1.9,0.1c-1.5,0.08-2.97,0.12-4.37,0.12
							l-0.23,0c-3-0.01-5.74-0.21-8.2-0.62c-0.48-0.07-0.94-0.16-1.38-0.25c0.36-0.32,0.75-0.65,1.17-0.99
							c0.95-0.77,2.02-1.53,3.18-2.28c0.58-0.37,1.19-0.75,1.79-1.1c0.46-0.26,0.99-0.52,1.56-0.8l0.32-0.16
							c1.37-0.66,2.83-1.29,4.33-1.89c0.75-0.3,1.52-0.59,2.33-0.88c0.77-0.29,1.48-0.51,2.22-0.71c3.68-1.01,6.98-1.72,10.1-2.17
							C267.08,246.55,270.47,246.35,273.74,246.35 M273.74,242.85c-3.44,0-6.98,0.22-10.53,0.63c-3.61,0.51-7.15,1.32-10.58,2.26
							c-0.87,0.23-1.7,0.5-2.5,0.8c-0.81,0.29-1.61,0.59-2.4,0.91c-1.58,0.62-3.1,1.29-4.56,1.98c-0.72,0.35-1.45,0.69-2.12,1.08
							c-0.67,0.39-1.31,0.79-1.94,1.19c-1.25,0.81-2.41,1.64-3.47,2.49c-1.06,0.85-2.02,1.72-2.85,2.61
							c-0.79,0.92-1.47,1.85-2.01,2.78c1.84,0.98,4.14,1.64,6.73,2.04c2.63,0.44,5.6,0.65,8.73,0.66c0.08,0,0.16,0,0.24,0
							c1.49,0,3.01-0.04,4.56-0.13c1.62-0.1,3.36-0.14,5.06-0.28c1.71-0.12,3.44-0.29,5.16-0.49c0.85-0.11,1.71-0.22,2.58-0.33
							c0.87-0.1,1.75-0.2,2.63-0.3c1.75-0.22,3.48-0.47,5.18-0.75c0.85-0.14,1.69-0.3,2.53-0.46c0.85-0.14,1.7-0.28,2.54-0.42
							c1.68-0.29,3.31-0.63,4.9-1c0.79-0.19,1.57-0.38,2.33-0.59c0.78-0.19,1.55-0.37,2.31-0.56c1.51-0.38,2.97-0.81,4.34-1.28
							c1.39-0.46,2.67-1.02,3.95-1.49c2.53-1,4.73-2.2,6.53-3.62c-2.09-1.53-4.56-2.87-7.35-4c-1.4-0.56-2.87-1.08-4.42-1.54
							c-0.77-0.23-1.57-0.45-2.37-0.64c-0.79-0.18-1.6-0.34-2.42-0.49c-3.28-0.59-6.8-0.97-10.42-1.08
							C273.98,242.85,273.86,242.85,273.74,242.85L273.74,242.85z"/>
					</g>
				</g>
				<g>
					<g>
						<path d="M264.7,197.88c-0.16,0.58-0.33,1.17-0.51,1.77c-0.44,1.44-0.98,2.96-1.57,4.47l-0.39,0.96l-0.6,1.5
							c-0.31,0.8-0.65,1.62-0.99,2.44c-1.26,3-2.79,6.21-4.68,9.83l-0.02,0.04l-0.02,0.04c-1.65,3.37-3.43,6.67-5.28,9.8l-0.02,0.04
							l-0.02,0.04c-1.5,2.67-3.48,6.14-5.52,9.19c-0.58,0.84-1.12,1.69-1.5,2.3c-0.46,0.71-0.92,1.41-1.37,2.07
							c-0.92,1.35-1.85,2.62-2.74,3.76l-1.47,1.82l-0.02,0.03l-0.02,0.03c-0.44,0.57-0.89,1.12-1.33,1.64
							c-0.88,1.05-1.77,2-2.64,2.84c-0.5,0.48-1.03,0.96-1.59,1.42c-0.09-0.48-0.16-0.97-0.22-1.49c-0.22-2.22-0.1-4.86,0.35-7.83
							c0.23-1.49,0.54-3.06,0.93-4.68c0.38-1.6,0.95-3.23,1.5-4.78c0.6-1.67,1.28-3.39,2.03-5.11c0.33-0.76,0.73-1.66,1.16-2.55
							c0.43-0.83,0.88-1.67,1.34-2.5c0.95-1.7,1.97-3.42,3.04-5.1c0.53-0.83,1.08-1.67,1.64-2.5c0.48-0.68,1-1.36,1.54-2.07
							l0.2-0.26c1.23-1.58,2.51-3.14,3.82-4.64c0.65-0.75,1.32-1.5,1.97-2.2c0.51-0.54,1.06-1.06,1.64-1.61l0.37-0.35
							c1.42-1.33,2.85-2.59,4.26-3.74c1.56-1.26,2.85-2.28,4.17-3.09l0.03-0.02l0.03-0.02C263.04,198.85,263.87,198.35,264.7,197.88
							 M269.37,191.83c-2.91,1.07-5.97,2.64-9.05,4.6c-1.56,0.95-3.04,2.14-4.55,3.35c-1.5,1.23-2.99,2.53-4.45,3.91
							c-0.73,0.69-1.47,1.38-2.17,2.12c-0.7,0.75-1.38,1.52-2.06,2.29c-1.36,1.56-2.68,3.16-3.95,4.8
							c-0.63,0.82-1.26,1.63-1.86,2.48c-0.58,0.87-1.15,1.74-1.71,2.61c-1.11,1.75-2.16,3.51-3.14,5.27
							c-0.49,0.88-0.96,1.76-1.42,2.64c-0.44,0.9-0.84,1.81-1.24,2.71c-0.79,1.8-1.5,3.58-2.12,5.33c-0.62,1.76-1.2,3.43-1.61,5.15
							c-0.42,1.71-0.75,3.37-0.99,4.97c-0.48,3.19-0.63,6.11-0.38,8.7c0.29,2.63,0.94,4.88,1.94,6.67c0.96-0.52,1.92-1.17,2.86-1.94
							c0.97-0.73,1.96-1.56,2.93-2.5c0.97-0.93,1.93-1.97,2.88-3.1c0.48-0.56,0.95-1.15,1.42-1.76c0.48-0.6,0.97-1.2,1.47-1.82
							c0.98-1.25,1.95-2.58,2.9-3.98c0.48-0.7,0.95-1.42,1.42-2.15c0.47-0.74,0.94-1.48,1.44-2.21c1.96-2.94,3.84-6.16,5.69-9.46
							c1.91-3.22,3.73-6.6,5.42-10.05c1.75-3.35,3.39-6.72,4.81-10.1c0.35-0.84,0.7-1.68,1.02-2.52c0.33-0.82,0.66-1.63,0.98-2.43
							c0.62-1.6,1.18-3.19,1.66-4.75C268.49,197.57,269.14,194.58,269.37,191.83L269.37,191.83z"/>
					</g>
				</g>
			</g>
			<g>
				<g>
					<g>
						<path d="M253.16,270.06c0.64,0,1.27,0.01,1.88,0.03c0.82,0.03,1.5,0.07,2.13,0.13c0.72,0.08,1.43,0.17,2.11,0.28
							c0.67,0.1,1.32,0.22,1.95,0.35c-0.01,0.01-0.02,0.01-0.03,0.02c-0.26,0.21-0.53,0.42-0.8,0.63c-0.94,0.72-1.99,1.44-3.13,2.13
							l-0.02,0.01l-0.02,0.01c-0.58,0.37-1.24,0.73-1.93,1.12c-0.6,0.33-1.23,0.68-1.86,1.06c-1.23,0.7-2.55,1.4-3.99,2.09
							c-0.66,0.33-1.37,0.65-2.12,0.98c-0.77,0.34-1.56,0.7-2.35,1.09c-1.42,0.67-2.93,1.33-4.5,1.98c-0.71,0.3-1.46,0.59-2.24,0.89
							c-0.85,0.33-1.73,0.66-2.59,1.03c-2.64,1.08-5.57,2.12-9.5,3.39l-0.03,0.01l-0.03,0.01c-3.14,1.08-6.2,1.96-9.06,2.61
							l-0.1,0.02c-1.48,0.33-2.89,0.63-4.2,0.87c-1.33,0.24-2.61,0.41-3.78,0.5c-0.56,0.05-1.11,0.07-1.64,0.09
							c3.98-6.24,13.16-13.02,23.45-16.97l0.05-0.02l0.05-0.02c3.41-1.43,7.25-2.38,9.8-2.96c1.66-0.36,3.28-0.7,4.87-0.9
							c1.67-0.2,3.32-0.34,4.9-0.42C251.35,270.08,252.27,270.06,253.16,270.06 M253.16,266.56c-0.95,0-1.91,0.02-2.89,0.07
							c-1.68,0.08-3.4,0.23-5.15,0.44c-1.74,0.22-3.44,0.58-5.19,0.96c-3.47,0.79-7.09,1.76-10.4,3.15
							c-13.59,5.22-25.15,14.93-27.38,23.23c1.39,0.35,2.95,0.51,4.64,0.51c0.79,0,1.62-0.04,2.46-0.1c1.32-0.11,2.7-0.29,4.12-0.55
							c1.41-0.26,2.88-0.58,4.43-0.92c3.07-0.7,6.26-1.63,9.44-2.72c3.25-1.05,6.59-2.19,9.78-3.49c1.57-0.67,3.26-1.26,4.84-1.92
							c1.6-0.66,3.16-1.34,4.67-2.05c1.48-0.74,3.06-1.37,4.51-2.09c1.46-0.71,2.86-1.44,4.19-2.2c1.3-0.79,2.68-1.47,3.9-2.24
							c1.24-0.76,2.39-1.55,3.45-2.36c1.04-0.84,2.07-1.62,3-2.44c0.92-0.82,1.74-1.67,2.44-2.56c-2.42-1.01-5.17-1.76-8.19-2.23
							c-0.75-0.12-1.52-0.22-2.31-0.3c-0.77-0.07-1.55-0.11-2.34-0.14C254.51,266.57,253.84,266.56,253.16,266.56L253.16,266.56z"/>
					</g>
				</g>
				<g>
					<g>
						<path d="M219.45,226.46c-0.01,0.63-0.03,1.28-0.07,1.95c-0.04,0.74-0.1,1.52-0.17,2.32l0,0.03l0,0.03
							c-0.05,0.68-0.12,1.58-0.21,2.48c-0.17,1.63-0.39,3.34-0.66,5.09c-0.27,1.7-0.59,3.46-0.96,5.25
							c-0.13,0.63-0.25,1.27-0.38,1.92c-0.23,1.18-0.46,2.4-0.73,3.6c-0.5,2.36-1.1,4.65-1.73,7.08c-0.33,1.26-0.65,2.51-0.96,3.78
							c-2.53,9.19-6.29,21.44-11.28,28.55c-0.21-0.45-0.41-0.92-0.6-1.43c-0.41-1.08-0.76-2.28-1.06-3.58
							c-0.33-1.38-0.55-2.75-0.66-4.09c-0.28-2.98-0.3-6.29-0.05-9.83c0.28-3.19,0.9-6.78,1.88-11.01c0.36-1.63,0.89-3.24,1.46-4.94
							l0.17-0.52c0.64-1.88,1.34-3.76,2.09-5.61l0.01-0.03l0.01-0.03c0.59-1.54,1.35-3.02,2.15-4.58l0.32-0.62
							c0.92-1.75,1.89-3.47,2.88-5.1l0.02-0.03l0.02-0.03c0.8-1.38,1.76-2.66,2.77-4l0.34-0.45c1.12-1.46,2.26-2.84,3.4-4.11
							l0.02-0.02l0.02-0.02C218.06,227.81,218.71,227.14,219.45,226.46 M222.5,219.63c-1.29,0.84-2.59,1.82-3.88,2.91
							c-1.29,1.09-2.59,2.28-3.78,3.65c-1.22,1.35-2.41,2.8-3.58,4.32c-1.15,1.54-2.34,3.08-3.35,4.82
							c-1.04,1.71-2.04,3.48-2.98,5.29c-0.93,1.82-1.89,3.62-2.64,5.57c-0.78,1.92-1.5,3.86-2.16,5.8c-0.64,1.95-1.3,3.85-1.73,5.84
							c-0.92,3.95-1.63,7.79-1.95,11.48c-0.26,3.74-0.24,7.26,0.06,10.44c0.13,1.58,0.4,3.12,0.74,4.56
							c0.33,1.44,0.73,2.78,1.19,4.01c0.93,2.46,2.11,4.48,3.53,5.97c6.32-5.92,11.02-18.96,15-33.45
							c0.91-3.68,1.93-7.29,2.73-11.01c0.41-1.84,0.75-3.73,1.12-5.55c0.38-1.81,0.71-3.61,0.99-5.4c0.28-1.78,0.51-3.55,0.69-5.28
							c0.09-0.86,0.16-1.73,0.22-2.57c0.08-0.83,0.14-1.65,0.18-2.45C223.05,225.37,222.96,222.34,222.5,219.63L222.5,219.63z"/>
					</g>
				</g>
			</g>
			<g>
				<g>
					<g>
						<path d="M221.32,342.78c-0.27,0.56-0.57,1.12-0.9,1.67l-0.02,0.04l-0.02,0.04c-0.43,0.76-0.96,1.56-1.53,2.41
							c-0.27,0.41-0.55,0.82-0.82,1.24c-0.78,1.21-1.67,2.46-2.67,3.75c-0.59,0.78-1.26,1.57-1.97,2.4c-0.42,0.5-0.84,1-1.27,1.52
							c-1.04,1.28-2.17,2.6-3.4,3.95c-0.62,0.7-1.3,1.4-2.01,2.14c-0.59,0.61-1.2,1.25-1.79,1.89c-1.21,1.31-2.49,2.63-3.83,3.96
							c-0.81,0.81-1.7,1.64-2.55,2.45c-0.52,0.49-1.03,0.97-1.56,1.48c-1.29,1.27-2.63,2.52-3.98,3.72
							c-1.35,1.21-2.73,2.38-4.06,3.46c-0.55,0.44-1.09,0.88-1.61,1.31c-0.83,0.68-1.61,1.32-2.42,1.93
							c-3.63,2.77-6.97,4.81-9.86,6.05c0.09-0.76,0.23-1.6,0.41-2.53c0.27-1.31,0.64-2.7,1.1-4.12l0.01-0.02l0.01-0.02
							c0.35-1.15,0.94-2.41,1.55-3.74l0.2-0.44c0.71-1.49,1.52-3.01,2.37-4.5l0.32-0.55c0.33-0.58,0.65-1.12,1-1.62
							c0.51-0.75,1.05-1.51,1.59-2.25c1.09-1.49,2.26-2.98,3.46-4.42c0.66-0.79,1.25-1.47,1.8-2.09c0.65-0.68,1.33-1.35,2-2.01
							c1.38-1.35,2.81-2.66,4.25-3.91c1.69-1.46,3.02-2.51,4.37-3.43c3.3-2.3,6.35-4.14,9.33-5.61c3.22-1.5,6.36-2.65,9.33-3.43
							C219.28,343.18,220.33,342.95,221.32,342.78 M226.52,338.84c-1.46,0-2.97,0.1-4.53,0.3c-1.55,0.21-3.12,0.54-4.73,0.96
							c-3.22,0.84-6.57,2.08-9.97,3.66c-3.29,1.62-6.57,3.62-9.82,5.89c-1.66,1.13-3.17,2.36-4.66,3.66
							c-1.5,1.29-2.97,2.65-4.4,4.05c-0.72,0.7-1.42,1.41-2.12,2.13c-0.66,0.73-1.29,1.48-1.92,2.23c-1.25,1.5-2.46,3.04-3.6,4.6
							c-0.57,0.78-1.12,1.56-1.66,2.34c-0.54,0.78-0.98,1.59-1.45,2.38c-0.91,1.59-1.75,3.18-2.51,4.76
							c-0.73,1.58-1.48,3.13-1.95,4.67c-0.49,1.54-0.89,3.04-1.19,4.49c-0.57,2.9-0.85,5.57-0.37,7.92
							c4.53-0.78,9.96-3.82,15.37-7.95c1.37-1.03,2.66-2.15,4.09-3.29c1.42-1.15,2.82-2.35,4.21-3.58c1.39-1.24,2.76-2.52,4.09-3.83
							c1.36-1.3,2.8-2.61,4.14-3.95c1.35-1.34,2.67-2.69,3.93-4.06c1.25-1.37,2.63-2.7,3.84-4.07c1.24-1.36,2.41-2.72,3.51-4.08
							c1.11-1.36,2.29-2.67,3.3-4.01c1.03-1.33,1.98-2.65,2.83-3.96c0.85-1.31,1.75-2.57,2.46-3.84c1.49-2.52,2.42-5.06,3.16-7.4
							C226.57,338.84,226.54,338.84,226.52,338.84L226.52,338.84z"/>
					</g>
				</g>
				<g>
					<g>
						<path d="M156.28,315.29c0.46,0.98,0.9,1.98,1.3,2.97c1.27,3.12,2.43,6.66,3.46,10.52l0.01,0.04l0.01,0.04
							c1.17,4.05,2.16,8.01,2.92,11.75c0.25,1.29,0.52,2.61,0.79,3.89c0.17,0.79,0.33,1.57,0.49,2.35c0.41,2.03,0.78,4.07,1.09,6.01
							l0.24,1.65l0.21,1.4l0,0.03l0.01,0.03l0.27,1.62l0.23,1.39c0.31,1.97,0.57,3.92,0.77,5.77c0.1,0.94,0.19,1.88,0.26,2.77
							c0.04,0.55,0.11,1.09,0.17,1.64c0.05,0.41,0.09,0.81,0.13,1.25c0.18,1.8,0.29,3.54,0.34,5.22c0.04,0.96,0.03,1.9,0.01,2.9
							c-0.01,0.68-0.02,1.35-0.01,1.96c0,1.5-0.08,2.93-0.23,4.27c-0.1,0.93-0.24,1.87-0.45,2.81c-2.48-1.96-4.97-4.95-7.33-8.85
							c-0.88-1.48-1.8-3.05-2.51-4.65c-0.76-1.68-1.49-3.47-2.18-5.33c-0.68-1.87-1.33-3.84-1.92-5.84
							c-0.54-1.92-0.95-3.93-1.37-6.14c-0.4-2.13-0.75-4.33-1.03-6.54c-0.25-1.91-0.32-3.83-0.4-5.87l-0.02-0.61
							c-0.06-2.22-0.06-4.46,0-6.63c0.07-2.06,0.33-4.06,0.6-6.19l0.02-0.13c0.29-2.11,0.64-4.19,1.05-6.17
							c0.4-1.91,1-3.74,1.59-5.52C155.27,317.88,155.74,316.58,156.28,315.29 M156.26,307.95c-1.97,2.79-3.41,6.26-4.73,10.03
							c-0.63,1.9-1.27,3.86-1.7,5.93c-0.43,2.08-0.8,4.22-1.09,6.41c-0.28,2.19-0.56,4.4-0.64,6.67c-0.07,2.28-0.07,4.57,0,6.85
							c0.09,2.29,0.15,4.55,0.45,6.83c0.29,2.28,0.64,4.53,1.06,6.73c0.43,2.21,0.85,4.35,1.45,6.45c0.62,2.1,1.28,4.14,2,6.09
							c0.71,1.95,1.48,3.81,2.28,5.57c0.78,1.76,1.77,3.44,2.69,4.99c3.77,6.23,7.99,10.55,12.41,12.32
							c0.83-2.21,1.57-4.79,1.86-7.71c0.16-1.46,0.24-3,0.24-4.62c-0.02-1.62,0.07-3.28-0.01-5.03c-0.05-1.74-0.18-3.55-0.36-5.41
							c-0.08-0.93-0.22-1.88-0.3-2.82c-0.08-0.95-0.17-1.9-0.27-2.87c-0.21-1.94-0.48-3.92-0.8-5.94c-0.17-1.01-0.34-2.03-0.51-3.05
							c-0.15-1.01-0.3-2.03-0.45-3.05c-0.33-2.05-0.7-4.11-1.12-6.19c-0.42-2.08-0.89-4.16-1.28-6.2
							c-0.83-4.09-1.86-8.17-2.99-12.07c-1.03-3.85-2.23-7.55-3.6-10.94c-0.68-1.69-1.43-3.31-2.19-4.82
							C157.89,310.63,157.1,309.23,156.26,307.95L156.26,307.95z"/>
					</g>
				</g>
			</g>
			<g>
				<g>
					<g>
						<path d="M239.17,300.29c0.01,0,0.01,0,0.02,0c-0.37,0.49-0.76,0.98-1.18,1.46l-0.03,0.03l-0.03,0.03
							c-0.56,0.68-1.24,1.37-1.96,2.11c-0.35,0.35-0.69,0.71-1.04,1.08c-1,1.05-2.11,2.13-3.34,3.22c-0.73,0.66-1.53,1.32-2.39,2.02
							c-0.51,0.42-1.02,0.83-1.54,1.27c-1.26,1.08-2.63,2.18-4.09,3.29c-0.75,0.58-1.54,1.15-2.39,1.76
							c-0.7,0.5-1.41,1.01-2.11,1.54c-1.43,1.08-2.94,2.16-4.51,3.23c-0.95,0.66-1.98,1.32-2.97,1.96c-0.6,0.39-1.2,0.77-1.82,1.18
							c-1.51,1.02-3.07,2.02-4.61,2.96c-1.56,0.95-3.13,1.86-4.65,2.69c-0.63,0.34-1.23,0.67-1.83,1.01
							c-0.94,0.52-1.83,1.02-2.75,1.48c-4.07,2.08-7.72,3.5-10.79,4.22c0.23-0.72,0.52-1.5,0.86-2.35c0.51-1.24,1.14-2.54,1.86-3.87
							l0.01-0.02l0.01-0.02c0.56-1.08,1.38-2.21,2.23-3.41l0.28-0.4c0.98-1.34,2.06-2.7,3.18-4.02l0.42-0.49
							c0.44-0.51,0.85-0.99,1.29-1.43c0.64-0.64,1.31-1.3,1.99-1.94c1.36-1.28,2.78-2.54,4.24-3.75c0.8-0.66,1.51-1.23,2.17-1.74
							c0.77-0.55,1.56-1.1,2.35-1.63c1.61-1.09,3.27-2.13,4.92-3.1c1.94-1.15,3.45-1.95,4.95-2.61c3.68-1.69,7.03-2.96,10.24-3.89
							c3.45-0.91,6.76-1.5,9.83-1.74C237.14,300.33,238.18,300.29,239.17,300.29 M239.17,296.79c-1.12,0-2.26,0.05-3.43,0.14
							c-3.32,0.26-6.85,0.89-10.49,1.86c-3.55,1.02-7.14,2.41-10.76,4.08c-1.84,0.82-3.56,1.77-5.27,2.78
							c-1.72,1.01-3.42,2.08-5.09,3.21c-0.84,0.56-1.67,1.14-2.49,1.73c-0.78,0.61-1.55,1.23-2.31,1.86
							c-1.52,1.26-2.99,2.56-4.4,3.89c-0.71,0.66-1.4,1.34-2.07,2.01c-0.68,0.68-1.26,1.39-1.87,2.09c-1.2,1.41-2.32,2.83-3.36,4.24
							c-1.02,1.43-2.04,2.82-2.79,4.25c-0.77,1.43-1.45,2.83-2.02,4.21c-1.11,2.75-1.88,5.33-1.85,7.73c0.03,0,0.06,0,0.1,0
							c4.59,0,10.46-2.04,16.52-5.14c1.54-0.77,3.02-1.65,4.64-2.52c1.61-0.88,3.22-1.81,4.82-2.79c1.6-0.98,3.19-2,4.75-3.05
							c1.58-1.05,3.25-2.08,4.82-3.17c1.58-1.08,3.13-2.18,4.63-3.31c1.49-1.13,3.09-2.2,4.54-3.33c1.47-1.12,2.88-2.25,4.22-3.4
							c1.35-1.14,2.75-2.23,4-3.36c1.26-1.13,2.44-2.26,3.53-3.41c1.08-1.14,2.21-2.22,3.15-3.35c1.94-2.22,3.33-4.55,4.5-6.73
							c-1.45-0.26-2.98-0.43-4.57-0.51C240.11,296.8,239.64,296.79,239.17,296.79L239.17,296.79z"/>
					</g>
				</g>
				<g>
					<g>
						<path d="M181.44,262.07c0.26,1.03,0.5,2.07,0.71,3.1c0.66,3.29,1.14,6.97,1.42,10.95l0,0.04l0,0.04
							c0.39,4.18,0.61,8.26,0.66,12.06c0,1.32,0.02,2.66,0.05,3.96c0.02,0.8,0.03,1.6,0.04,2.39c0.02,2.07,0,4.13-0.06,6.1
							l-0.06,1.42l-0.07,1.66l0,0.03l0,0.03l-0.03,1.49l-0.04,1.56c-0.07,2-0.18,3.95-0.33,5.81c-0.08,0.93-0.16,1.87-0.26,2.77
							c-0.06,0.54-0.1,1.09-0.14,1.64c-0.03,0.41-0.06,0.82-0.1,1.26c-0.16,1.8-0.38,3.53-0.64,5.19c-0.14,0.95-0.33,1.88-0.53,2.86
							c-0.14,0.67-0.27,1.32-0.38,1.93c-0.29,1.48-0.63,2.87-1.03,4.17c-0.28,0.92-0.61,1.83-1,2.74c-2.07-2.35-3.95-5.73-5.53-9.96
							c-0.59-1.61-1.19-3.31-1.59-5.01c-0.43-1.78-0.82-3.67-1.14-5.62c-0.32-1.96-0.59-4.01-0.78-6.07
							c-0.17-1.98-0.19-4.02-0.2-6.28c0.01-2.16,0.08-4.38,0.22-6.61c0.12-1.92,0.41-3.83,0.72-5.84l0.09-0.61
							c0.35-2.19,0.78-4.39,1.25-6.52c0.46-2.01,1.09-3.94,1.76-5.99l0.04-0.12c0.68-2.03,1.42-4.01,2.19-5.88
							c0.75-1.81,1.69-3.51,2.6-5.16C179.94,264.46,180.66,263.25,181.44,262.07 M182.78,254.84c-2.47,2.39-4.54,5.56-6.54,9.04
							c-0.97,1.76-1.97,3.57-2.79,5.54c-0.82,1.97-1.58,4.02-2.28,6.11c-0.69,2.11-1.38,4.23-1.89,6.45
							c-0.5,2.23-0.93,4.48-1.29,6.74c-0.34,2.27-0.71,4.5-0.85,6.8c-0.14,2.29-0.22,4.57-0.23,6.8c0.01,2.24,0.02,4.42,0.21,6.59
							c0.21,2.18,0.48,4.3,0.82,6.34c0.34,2.04,0.73,4.01,1.19,5.88c0.44,1.87,1.09,3.69,1.7,5.38c2.53,6.78,5.88,11.77,9.88,14.28
							c1.23-2.02,2.44-4.43,3.29-7.26c0.43-1.41,0.8-2.91,1.11-4.5c0.29-1.6,0.69-3.22,0.94-4.95c0.27-1.72,0.5-3.52,0.67-5.38
							c0.09-0.93,0.14-1.89,0.24-2.83c0.1-0.94,0.19-1.9,0.27-2.87c0.16-1.94,0.27-3.94,0.34-5.98c0.02-1.02,0.05-2.05,0.07-3.09
							c0.04-1.02,0.09-2.05,0.13-3.08c0.06-2.07,0.09-4.17,0.07-6.28c-0.02-2.12-0.09-4.25-0.09-6.32
							c-0.05-4.17-0.29-8.36-0.67-12.39c-0.28-3.97-0.77-7.82-1.48-11.39c-0.35-1.78-0.78-3.51-1.25-5.12
							C183.88,257.76,183.37,256.24,182.78,254.84L182.78,254.84z"/>
					</g>
				</g>
			</g>
			<g>
				<g>
					<g>
						<path d="M213.19,378.98c-0.22,0.84-0.48,1.72-0.79,2.64l-0.03,0.08l-0.02,0.08c-0.77,2.73-1.99,5.71-3.6,8.87l-0.04,0.07
							l-0.03,0.08c-1.48,3.26-3.23,6.55-5.2,9.78l-0.04,0.06l-0.04,0.06c-2.05,3.68-4.09,7.01-6.25,10.18l-0.03,0.04l-0.03,0.04
							c-1.93,3.03-4.26,6.58-6.83,9.98l-1.96,2.61l-1.62,2.16c-1.16,1.51-2.34,2.95-3.48,4.27c-2.81,3.17-6.27,6.82-9.8,9.19
							c-0.52-3.51-0.26-8.01,0.79-13.27c0.89-3.52,2.1-7.18,3.61-10.87c1.43-3.26,3.34-6.81,5.85-10.85l0.02-0.02l0.01-0.02
							c0.89-1.48,2.06-3.01,3.2-4.49l0.36-0.46c1.3-1.66,2.65-3.27,4-4.78c0.71-0.8,1.38-1.51,2.02-2.18
							c0.73-0.7,1.47-1.39,2.2-2.05c1.5-1.35,3.03-2.63,4.54-3.79c1.51-1.16,3.03-2.23,4.52-3.19c1.48-0.9,3.05-1.75,4.67-2.52
							C210.54,380.01,211.88,379.45,213.19,378.98 M217.43,374.15c-3.14,0.63-6.41,1.76-9.73,3.35c-1.66,0.79-3.35,1.7-5.01,2.71
							c-1.61,1.02-3.21,2.15-4.81,3.38c-1.6,1.23-3.18,2.55-4.75,3.97c-0.78,0.71-1.56,1.43-2.34,2.18
							c-0.73,0.75-1.44,1.53-2.15,2.32c-1.42,1.58-2.81,3.24-4.15,4.96c-1.32,1.72-2.71,3.49-3.81,5.32
							c-2.27,3.66-4.42,7.48-6.1,11.33c-1.57,3.86-2.86,7.73-3.8,11.46c-1.5,7.45-1.68,14.31,0.42,19.16
							c4.82-1.85,9.6-6.32,14.62-11.98c1.23-1.42,2.45-2.91,3.64-4.45c1.17-1.56,2.38-3.16,3.61-4.79c2.48-3.29,4.76-6.73,6.98-10.2
							c2.36-3.47,4.49-6.98,6.42-10.45c2.11-3.45,3.91-6.86,5.41-10.16c1.68-3.28,2.99-6.47,3.85-9.51
							C216.73,379.72,217.36,376.85,217.43,374.15L217.43,374.15z"/>
					</g>
				</g>
				<g>
					<g>
						<path d="M137.04,362.92c0.85,1.11,1.71,2.31,2.56,3.6c0.98,1.47,1.97,3.09,3.12,5.09l0.02,0.03l0.02,0.03
							c1.06,1.76,2.13,3.65,3.17,5.6c1.01,1.9,2.02,3.89,2.97,5.89l0.17,0.37l1.29,2.79l0.42,0.88l1.09,2.26
							c0.97,2.07,1.91,4.19,2.81,6.32c0.41,0.94,0.78,1.88,1.18,2.87c0.46,1.15,0.93,2.35,1.47,3.56c1.84,4.32,3.39,8.65,4.65,12.32
							l0.01,0.04l0.02,0.04c1.5,4.05,2.69,7.86,3.51,11.34l0.02,0.08l0.02,0.08c1.44,4.98,2.18,9.56,2.2,13.49
							c-3.47-1.59-7.17-4.43-10.6-8.2c-1.29-1.39-2.6-2.92-3.88-4.56c-1.51-1.91-2.65-3.54-3.63-5.16
							c-2.56-4.16-4.74-8.29-6.49-12.28c-1.92-4.72-3.5-9.37-4.69-13.8c-1.16-5-1.97-9.77-2.42-14.2c-0.29-4.71-0.26-9.19,0.1-13.32
							C136.36,366.31,136.66,364.58,137.04,362.92 M135.48,355.85c-1.31,3.49-2.27,7.52-2.83,11.89c-0.39,4.4-0.42,9.13-0.11,13.98
							c0.49,4.87,1.37,9.87,2.51,14.77c1.32,4.92,3.01,9.75,4.86,14.31c2,4.57,4.35,8.87,6.74,12.75c1.17,1.94,2.51,3.78,3.86,5.5
							c1.34,1.72,2.71,3.32,4.07,4.78c5.36,5.88,11.29,9.56,16.33,10.5c0.8-5.13,0.15-11.72-2-19.16
							c-0.89-3.72-2.12-7.67-3.64-11.75c-1.4-4.08-2.92-8.3-4.75-12.58c-0.95-2.14-1.72-4.28-2.64-6.42
							c-0.9-2.14-1.85-4.28-2.85-6.41c-0.51-1.06-1.02-2.12-1.52-3.17c-0.48-1.05-0.96-2.08-1.44-3.12c-0.98-2.06-2-4.09-3.05-6.07
							c-1.05-1.98-2.14-3.91-3.26-5.76c-1.06-1.84-2.13-3.61-3.24-5.29C140.29,361.23,137.94,358.26,135.48,355.85L135.48,355.85z"
							/>
					</g>
				</g>
			</g>
			<g>
				<g>
					<g>
						<path d="M215.9,419.43c0.06,4.15-0.53,8.92-1.77,14.25l-0.01,0.05l-0.01,0.05c-0.36,1.81-0.82,3.72-1.36,5.68
							c-0.27,0.97-0.56,1.96-0.86,2.93l-0.49,1.54l-0.02,0.06l-0.02,0.06l-0.43,1.54c-1.07,3.85-2.56,7.95-4,11.91l-0.15,0.41
							l-0.01,0.03l-0.01,0.03c-1.4,4.08-3.02,8.17-4.82,12.16l-0.03,0.06l-0.02,0.06c-1.63,4.03-3.39,7.77-5.19,11.1
							c-2.13,3.84-3.83,6.71-5.68,9.17c-0.94,1.25-1.89,2.35-2.83,3.3c-4.08-9.31-3.41-25.61,1.99-40.22l0.02-0.06l0.02-0.06
							c1.46-4.42,3.78-8.82,5.62-12.14c1.26-2.23,2.34-3.99,3.39-5.54c1.27-1.78,2.59-3.49,3.92-5.06c2.99-3.53,5.64-6.16,8.32-8.26
							C212.96,421.35,214.43,420.32,215.9,419.43 M218.93,413.89c-3.2,1.41-6.42,3.37-9.59,5.83c-3.14,2.46-6,5.41-8.85,8.77
							c-1.41,1.68-2.78,3.46-4.12,5.32c-1.26,1.86-2.42,3.8-3.57,5.82c-2.23,4.02-4.44,8.36-5.89,12.76
							c-6.53,17.67-6.5,37.42,0.32,46.78c2.32-1.54,4.53-3.79,6.59-6.54c2.08-2.75,3.94-5.97,5.94-9.57
							c1.94-3.58,3.74-7.47,5.37-11.49c1.83-4.06,3.5-8.26,4.94-12.46c1.53-4.21,3.1-8.47,4.24-12.59l0.43-1.54l0.49-1.54
							c0.32-1.03,0.62-2.04,0.89-3.05c0.56-2.02,1.03-3.99,1.42-5.93C219.34,426.71,219.91,419.68,218.93,413.89L218.93,413.89z"/>
					</g>
				</g>
				<g>
					<g>
						<path d="M130.34,420.02c1.35,1.1,2.72,2.33,4.12,3.67c3.52,3.35,6.71,6.7,9.48,9.95c1.53,1.78,3.08,3.67,4.6,5.61l0.02,0.03
							l0.02,0.03c1.72,2.09,3.25,3.98,4.75,5.93c1.9,2.43,3.72,4.98,5.48,7.44c1.12,1.57,2.29,3.2,3.47,4.8
							c7.74,11.12,17.79,26.52,20.51,37.89c-1.26-0.26-2.6-0.65-3.99-1.16c-3.39-1.25-6.79-3.04-9.85-5.21
							c-3.45-2.39-7-5.31-10.54-8.7c-3.38-3.46-6.72-7.37-9.92-11.61c-2.72-3.71-5.32-7.93-8.42-13.63l-0.93-1.77l-0.81-1.75
							c-0.55-1.22-1.08-2.46-1.58-3.68c-1.01-2.45-1.95-4.92-2.78-7.35C131.59,432.96,130.36,426,130.34,420.02 M127.31,413.52
							c-1.27,8.01,0.15,17.97,3.34,28.09c0.86,2.53,1.82,5.07,2.87,7.59c0.52,1.26,1.06,2.52,1.63,3.77l0.86,1.87l0.98,1.85
							c2.67,4.91,5.49,9.68,8.71,14.08c3.31,4.38,6.78,8.43,10.27,12.01c3.69,3.53,7.41,6.6,11.01,9.09
							c3.54,2.51,7.25,4.37,10.63,5.62c3.18,1.16,6.15,1.77,8.82,1.77c0.18,0,0.36,0,0.54-0.01c-0.76-11.27-10.25-27.2-21.82-43.82
							c-3.05-4.12-5.87-8.3-9.04-12.35c-1.56-2.03-3.19-4.03-4.8-5.99c-1.53-1.96-3.1-3.88-4.7-5.74
							c-3.16-3.71-6.53-7.17-9.73-10.21C133.71,418.12,130.5,415.5,127.31,413.52L127.31,413.52z"/>
					</g>
				</g>
			</g>
			<g>
				<g>
					<g>
						<path d="M214.48,473.88c0.21,0.67,0.41,1.37,0.58,2.09c0.3,1.25,0.54,2.62,0.72,4.05l0.01,0.05l0.01,0.05l0.01,0.07
							c0.23,1.45,0.46,2.94,0.6,4.47c0.15,1.52,0.24,3.15,0.28,4.84l0,0.04l0,0.04c0.02,0.49,0.05,0.98,0.07,1.47
							c0.06,1.21,0.13,2.45,0.14,3.71c0.03,1.7,0.01,3.49-0.06,5.31l0,0.04l0,0.04l-0.01,1.36c-0.01,1.4-0.02,2.73-0.08,4.09
							c-0.07,1.79-0.18,3.63-0.33,5.46c-0.06,0.78-0.11,1.56-0.16,2.32c-0.07,1.07-0.13,2.09-0.24,3.13
							c-0.16,1.76-0.36,3.51-0.61,5.19c-0.12,0.85-0.26,1.7-0.4,2.56l-0.23,1.45l-0.16,1c-0.74,4.28-1.81,7.95-3.12,10.74
							c-0.52-0.69-1.05-1.46-1.6-2.32c-0.85-1.39-1.49-2.56-2-3.68c-0.58-1.38-1.14-2.87-1.64-4.42c-0.51-1.56-0.97-3.2-1.38-4.86
							c-0.37-1.56-0.6-3.26-0.84-5.06l-0.02-0.11c-0.23-1.81-0.4-3.66-0.52-5.49l0-0.03l0-0.03c-0.06-0.73-0.08-1.57-0.05-2.6
							c0.01-0.94,0.04-1.89,0.08-2.82c0.16-3.29,0.44-7.17,1.34-10.92l0.01-0.03l0.01-0.03c0.4-1.8,0.85-3.57,1.35-5.25
							c0.6-2.02,1.1-3.44,1.71-4.8c1.35-3.17,2.88-6.02,4.55-8.49c0.42-0.61,0.84-1.21,1.25-1.74
							C213.97,474.49,214.22,474.19,214.48,473.88 M215.74,467.66c-1.11,0.94-2.18,1.99-3.22,3.14c-0.52,0.58-1.04,1.18-1.53,1.81
							c-0.48,0.62-0.94,1.27-1.39,1.94c-1.81,2.68-3.45,5.73-4.88,9.08c-0.75,1.69-1.31,3.4-1.84,5.18c-0.53,1.78-1,3.62-1.42,5.5
							c-0.9,3.8-1.24,7.63-1.43,11.56c-0.04,0.98-0.07,1.96-0.08,2.94c-0.02,0.99-0.01,1.96,0.06,2.92c0.12,1.92,0.3,3.83,0.54,5.72
							c0.25,1.88,0.5,3.76,0.92,5.53c0.43,1.77,0.92,3.49,1.46,5.14c0.54,1.65,1.13,3.24,1.76,4.74c0.67,1.48,1.44,2.84,2.22,4.11
							c1.59,2.52,3.27,4.67,5.19,6.15c2.88-3.51,4.83-9.28,5.96-15.81c0.13-0.82,0.26-1.65,0.4-2.5c0.15-0.86,0.29-1.73,0.41-2.61
							c0.25-1.76,0.46-3.55,0.63-5.37c0.18-1.82,0.25-3.62,0.4-5.49c0.16-1.87,0.27-3.75,0.34-5.61c0.08-1.87,0.08-3.7,0.1-5.54
							c0.07-1.86,0.09-3.7,0.06-5.5c-0.02-1.8-0.14-3.55-0.21-5.28c-0.04-1.75-0.14-3.45-0.3-5.09c-0.15-1.64-0.4-3.22-0.64-4.75
							c-0.19-1.55-0.46-3.03-0.79-4.43c-0.33-1.4-0.74-2.73-1.23-3.97C216.76,469.94,216.33,468.75,215.74,467.66L215.74,467.66z"/>
					</g>
				</g>
				<g>
					<g>
						<path d="M147.73,494.56c0.19,0.08,0.37,0.17,0.56,0.25c0.78,0.34,1.58,0.72,2.39,1.11c3.12,1.52,6.47,3.43,9.93,5.66
							l5.26,3.42c1.72,1.14,3.45,2.34,5.15,3.57c1.22,0.91,2.46,1.81,3.71,2.72c2.19,1.6,4.46,3.25,6.53,4.89l0.89,0.71l1.56,1.25
							c0.78,0.65,1.61,1.34,2.51,2.02c1.61,1.26,3.15,2.53,4.62,3.8c0.92,0.78,1.82,1.61,2.69,2.4c0.53,0.48,1.05,0.96,1.6,1.45
							c1.39,1.22,2.7,2.44,3.88,3.62c1.2,1.2,2.3,2.39,3.28,3.54l0.03,0.03l0.03,0.03c1.03,1.16,2.03,2.29,2.86,3.4
							c0.54,0.71,1.04,1.43,1.49,2.16c-0.2,0.01-0.41,0.01-0.62,0.01c-3.08,0-6.76-0.64-10.9-1.91c-0.76-0.24-1.66-0.52-2.51-0.84
							c-0.83-0.32-1.69-0.68-2.55-1.05c-1.74-0.76-3.54-1.62-5.33-2.55c-1.71-0.91-3.65-1.94-5.42-3.09
							c-1.79-1.17-3.59-2.43-5.36-3.74c-1.72-1.28-3.54-2.68-5.24-4.15c-1.66-1.5-3.31-3.06-4.88-4.64
							c-1.61-1.64-3.17-3.25-4.56-4.89c-1.4-1.72-2.74-3.47-3.98-5.2c-1.18-1.66-2.41-3.44-3.46-5.21c-1-1.78-1.9-3.55-2.68-5.26
							C148.66,496.88,148.16,495.7,147.73,494.56 M142.62,488.95c0.28,1.67,0.64,3.42,1.23,5.18c0.6,1.76,1.33,3.56,2.17,5.4
							c0.84,1.83,1.79,3.69,2.83,5.55c1.09,1.85,2.34,3.67,3.64,5.49c1.31,1.82,2.69,3.63,4.14,5.41c1.48,1.76,3.12,3.45,4.76,5.11
							c1.65,1.66,3.34,3.27,5.06,4.82c1.76,1.53,3.63,2.95,5.46,4.33c1.84,1.37,3.7,2.66,5.55,3.87c1.85,1.2,3.82,2.26,5.7,3.25
							c1.89,0.99,3.76,1.88,5.58,2.67c0.91,0.4,1.81,0.77,2.7,1.11c0.91,0.33,1.82,0.63,2.71,0.9c4.42,1.35,8.45,2.06,11.94,2.06
							c2.16,0,4.12-0.27,5.83-0.84c-0.84-2.22-2.11-4.59-3.93-6.96c-0.89-1.19-1.93-2.37-3.02-3.6c-1.06-1.24-2.22-2.5-3.47-3.75
							c-1.26-1.26-2.61-2.52-4.04-3.78c-1.42-1.27-2.81-2.6-4.34-3.89c-1.51-1.3-3.09-2.6-4.74-3.89c-0.84-0.64-1.64-1.3-2.44-1.96
							c-0.82-0.66-1.64-1.31-2.47-1.98c-3.33-2.63-6.96-5.16-10.36-7.7c-1.74-1.26-3.51-2.48-5.29-3.66
							c-1.79-1.16-3.56-2.31-5.29-3.43c-3.45-2.22-6.92-4.22-10.3-5.87c-0.85-0.41-1.69-0.8-2.52-1.17
							c-0.82-0.37-1.61-0.73-2.41-1.05C145.7,489.91,144.14,489.37,142.62,488.95L142.62,488.95z"/>
					</g>
				</g>
			</g>
			<g>
				<g>
					<g>
						<path d="M396.14,185.89c1.73,0,3.63,0.15,5.64,0.44c1.21,0.18,2.47,0.4,3.75,0.68c1.23,0.29,2.51,0.7,3.81,1.12
							c2.64,0.87,5.28,1.92,7.85,3.11c2.37,1.18,4.84,2.63,7.33,4.29c2.72,1.84,4.65,3.36,6.28,4.96c1.96,1.86,3.62,3.75,4.96,5.61
							c-1.69-0.27-3.54-0.78-5.49-1.31c-0.42-0.12-0.85-0.23-1.28-0.35c-2.33-0.68-4.81-1.59-7.43-2.71l-0.13-0.06
							c-2.52-1.04-5.12-2.12-7.61-3.38c-1.26-0.62-2.53-1.29-3.74-1.96c-0.58-0.33-1.16-0.63-1.73-0.94
							c-0.69-0.37-1.35-0.72-2.01-1.11c-2.38-1.36-4.58-2.77-6.52-4.2c-1.03-0.75-2.02-1.56-2.78-2.19
							c-0.81-0.67-1.55-1.33-2.19-1.98c0.07-0.01,0.15-0.01,0.22-0.01C395.42,185.9,395.78,185.89,396.14,185.89 M396.14,182.39
							c-0.42,0-0.84,0.01-1.25,0.02c-2.26,0.13-4.27,0.61-5.95,1.3c0.7,1.55,1.86,3.1,3.36,4.63c0.75,0.76,1.59,1.52,2.5,2.27
							c0.91,0.76,1.9,1.56,2.94,2.32c2.09,1.53,4.41,3.02,6.85,4.41c1.22,0.71,2.48,1.33,3.76,2.06c1.28,0.71,2.59,1.39,3.9,2.04
							c2.63,1.32,5.31,2.43,7.96,3.53c2.65,1.14,5.28,2.1,7.82,2.84c2.54,0.68,5,1.41,7.31,1.77c1.48,0.24,2.91,0.36,4.26,0.36
							c0.76,0,1.5-0.04,2.22-0.12c-1.56-3.95-4.58-8.01-8.62-11.86c-2.02-1.97-4.29-3.67-6.73-5.32c-2.45-1.63-5.07-3.2-7.77-4.55
							c-2.7-1.26-5.49-2.36-8.27-3.28c-1.39-0.45-2.77-0.89-4.14-1.21c-1.36-0.3-2.71-0.54-4.02-0.73
							C400.13,182.55,398.06,182.39,396.14,182.39L396.14,182.39z"/>
					</g>
				</g>
				<g>
					<g>
						<path d="M437.06,160.54c0.89,0,1.81,0.02,2.81,0.07c0.14,0.01,0.27,0.01,0.41,0.02c-1.96,1.45-4.23,2.91-6.76,4.33l-0.79,0.43
							c-2.37,1.29-4.83,2.62-7.34,3.82c-2.44,1.18-5.14,2.34-8.48,3.66l-0.04,0.02l-0.04,0.02c-2.87,1.22-5.69,2.27-8.4,3.13
							c-1.04,0.34-2.1,0.64-3.13,0.93l-0.93,0.26l-0.03,0.01l-0.03,0.01c-1.31,0.4-2.58,0.75-3.79,1.03
							c-2.45,0.58-4.7,0.93-6.68,1.03l-0.03,0l-0.03,0c-0.12,0.01-0.24,0.02-0.35,0.02c0.54-0.74,1.18-1.5,1.88-2.25
							c0.65-0.69,1.43-1.41,2.51-2.32c1.91-1.59,4.16-3.18,6.66-4.7l0.22-0.13c1.2-0.72,2.45-1.46,3.68-2.04
							c1.38-0.67,2.83-1.32,4.28-1.92c3.7-1.51,6.53-2.5,9.13-3.19c3.18-0.81,6.36-1.43,9.43-1.84l0.03,0l0.03,0
							C433.08,160.67,434.97,160.54,437.06,160.54 M437.06,157.04c-2.03,0-4.14,0.12-6.3,0.45c-3.24,0.44-6.55,1.09-9.82,1.92
							c-3.27,0.87-6.52,2.09-9.59,3.34c-1.54,0.64-3.04,1.31-4.48,2.01c-1.45,0.69-2.84,1.53-4.17,2.32
							c-2.66,1.61-5.06,3.3-7.11,5.02c-1.03,0.86-1.97,1.71-2.81,2.6c-0.84,0.9-1.59,1.81-2.24,2.7c-1.29,1.78-2.16,3.53-2.56,5.18
							c1.11,0.25,2.31,0.34,3.61,0.34c0.79,0,1.61-0.04,2.45-0.1c2.25-0.12,4.71-0.5,7.31-1.12c1.3-0.31,2.64-0.67,4.01-1.09
							c1.37-0.39,2.76-0.77,4.18-1.23c2.83-0.91,5.75-2,8.68-3.24c2.92-1.15,5.85-2.38,8.72-3.77c2.86-1.37,5.67-2.91,8.28-4.33
							c5.23-2.93,9.82-6.24,12.86-9.71c-2.37-0.66-5.08-1.06-8-1.21C439.08,157.07,438.08,157.04,437.06,157.04L437.06,157.04z"/>
					</g>
				</g>
			</g>
			<g>
				<g>
					<g>
						<path d="M355.4,194c0.64,0,1.27,0.02,1.89,0.06c5.83,0.5,11.17,1.7,15.87,3.59l0.03,0.01l0.03,0.01
							c1.35,0.52,2.69,1.07,3.98,1.65c1.21,0.55,2.49,1.14,3.67,1.83l0.02,0.01l0.02,0.01c2.49,1.42,4.79,2.93,6.84,4.5
							c1.02,0.78,1.99,1.59,2.84,2.36c0.79,0.73,1.61,1.59,2.43,2.53c0.04,0.04,0.07,0.08,0.1,0.12c-2.02-0.1-4.25-0.43-6.69-0.97
							c-0.66-0.14-1.36-0.32-2.11-0.52c-0.59-0.16-1.19-0.31-1.76-0.45c-1.26-0.3-2.56-0.66-3.88-1.06
							c-1.3-0.39-2.64-0.84-3.96-1.31c-0.52-0.19-1.04-0.38-1.55-0.57c-0.88-0.33-1.76-0.65-2.58-0.94
							c-5.99-2.18-11.33-4.93-14.76-6.86c-2.07-1.21-3.85-2.44-5.28-3.64c0.04-0.01,0.07-0.01,0.11-0.02
							C352.34,194.12,353.89,194,355.4,194 M355.4,190.5c-1.85,0-3.61,0.16-5.23,0.39c-2.24,0.34-4.22,0.88-5.81,1.71
							c1.71,2.95,5.29,5.86,9.73,8.45c4.44,2.5,9.83,5.12,15.3,7.11c1.37,0.48,2.75,1.01,4.14,1.51c1.38,0.5,2.77,0.95,4.14,1.37
							s2.73,0.79,4.08,1.11c1.34,0.31,2.68,0.72,3.98,0.99c2.6,0.58,5.1,0.94,7.43,1.05c0.95,0.08,1.88,0.12,2.78,0.12
							c1.3,0,2.53-0.09,3.69-0.31c-0.97-1.92-2.3-3.85-3.95-5.74c-0.82-0.94-1.72-1.9-2.69-2.8c-0.97-0.88-2-1.74-3.1-2.58
							c-2.19-1.68-4.63-3.28-7.24-4.76c-1.3-0.77-2.64-1.39-4.01-2.01c-1.37-0.61-2.76-1.19-4.18-1.73
							c-5.67-2.27-11.56-3.38-16.9-3.83C356.83,190.52,356.11,190.5,355.4,190.5L355.4,190.5z"/>
					</g>
				</g>
				<g>
					<g>
						<path d="M392.15,162.22c-0.9,0.93-1.89,1.84-2.85,2.71c-0.99,0.92-2.07,1.86-3.19,2.8c-2.2,1.82-4.6,3.62-7.16,5.36l-3.9,2.66
							c-1.27,0.85-2.57,1.68-3.85,2.46c-5.8,3.41-10.6,6.15-15.11,7.89l-0.03,0.01l-0.03,0.01c-2.17,0.88-4.46,1.78-6.51,2.25
							c-0.15,0.04-0.29,0.07-0.44,0.1c0.83-1.65,2.05-3.47,3.62-5.37c2.9-3.61,7.3-7.36,13.1-11.15c1.11-0.74,2.38-1.49,4.03-2.35
							c1.43-0.76,2.9-1.49,4.38-2.16c1.48-0.68,2.99-1.33,4.5-1.93c1.24-0.5,2.53-0.88,3.89-1.28l0.47-0.14
							c3.01-0.86,5.89-1.48,8.57-1.84C391.81,162.25,391.98,162.24,392.15,162.22 M395.24,158.58c-1.29,0-2.63,0.07-4.01,0.21
							c-2.92,0.39-6,1.06-9.12,1.95c-1.56,0.46-3.14,0.91-4.7,1.54c-1.56,0.62-3.12,1.29-4.66,2c-1.54,0.71-3.06,1.46-4.55,2.25
							c-1.49,0.78-2.94,1.6-4.34,2.54c-5.61,3.66-10.48,7.63-13.88,11.86c-3.42,4.15-5.47,8.11-5.66,11.5
							c0.29,0.01,0.58,0.02,0.87,0.02c1.59,0,3.33-0.21,5.17-0.67c2.19-0.51,4.52-1.41,6.98-2.41c4.94-1.9,10.27-5,15.65-8.15
							c1.34-0.82,2.67-1.67,4-2.56c1.3-0.89,2.62-1.78,3.93-2.68c2.59-1.76,5.09-3.63,7.42-5.56c1.16-0.96,2.28-1.94,3.34-2.93
							c1.06-0.96,2.07-1.9,3.01-2.86c1.87-1.92,3.47-3.87,4.66-5.8C398.05,158.67,396.68,158.58,395.24,158.58L395.24,158.58z"/>
					</g>
				</g>
			</g>
			<g>
				<g>
					<g>
						<path d="M326.81,205.53c0.16,0,0.32,0,0.44,0c2.83,0.06,5.71,0.29,8.56,0.68l0.03,0l0.03,0c2.76,0.33,5.61,1.08,8.28,1.85
							c2.34,0.71,5.06,1.6,7.58,2.83c2.44,1.19,4.62,2.49,6.49,3.85c-0.92,0.12-1.91,0.2-2.94,0.24l-0.06,0l-0.06,0.01
							c-1.39,0.11-2.54,0.16-3.66,0.17c-0.24,0-0.49,0.01-0.73,0.01c-2.26,0-4.72-0.18-7.26-0.39l-0.03,0l-0.03,0
							c-2.69-0.17-5.51-0.5-8.34-0.96l-2.23-0.39l-2.13-0.35c-1.38-0.24-2.75-0.5-4.1-0.8c-2.33-0.5-4.83-1.19-7.67-2.09
							c-2.57-0.8-4.54-1.62-6.04-2.4c1.92-0.77,4.14-1.34,6.51-1.66C322.35,205.71,324.62,205.53,326.81,205.53 M326.81,202.03
							c-2.75,0-5.37,0.28-7.86,0.64c-5.31,0.71-9.66,2.53-12.41,4.79c2.35,2.53,6.48,4.55,11.39,6.08c2.47,0.79,5.19,1.57,7.97,2.17
							c1.4,0.31,2.82,0.59,4.25,0.83l2.16,0.35l2.2,0.38c2.93,0.48,5.86,0.82,8.71,1c2.58,0.21,5.13,0.4,7.55,0.4
							c0.27,0,0.53,0,0.8-0.01c1.33-0.01,2.61-0.09,3.86-0.18c1.26-0.05,2.47-0.16,3.63-0.32c2.32-0.32,4.41-0.86,6.23-1.66
							c-2.75-3.3-6.94-6.28-12.02-8.76c-2.54-1.24-5.25-2.17-8.12-3.04c-2.85-0.82-5.89-1.62-8.86-1.97
							c-2.99-0.41-6.01-0.65-8.96-0.71C327.15,202.03,326.98,202.03,326.81,202.03L326.81,202.03z"/>
					</g>
				</g>
				<g>
					<g>
						<path d="M346.23,167.64c-1.25,2.09-2.81,4.3-4.63,6.58c-1.73,2.17-3.7,4.62-5.78,6.87l-0.02,0.02l-0.02,0.02
							c-1.34,1.49-2.73,2.88-4.21,4.36c-0.74,0.74-1.49,1.49-2.23,2.25c-2.17,2.15-4.35,4.13-6.52,5.91l-0.18,0.15
							c-2.15,1.8-4.18,3.5-6.13,4.83c-2.03,1.35-4.23,2.75-6.34,3.76c0.42-1.81,1.18-3.86,2.25-6.04c0.99-1.97,2.34-4.11,4.26-6.71
							c0.86-1.16,1.81-2.34,2.79-3.5l0.1-0.12c0.48-0.56,0.93-1.08,1.39-1.58c0.53-0.55,1.08-1.1,1.63-1.64l0.03-0.03l0.03-0.03
							C329.4,175.85,338.35,170.21,346.23,167.64 M352.44,162.73c-9.89,0.91-23.05,8.12-32.3,17.58c-0.59,0.57-1.16,1.15-1.72,1.73
							c-0.56,0.59-1.09,1.22-1.61,1.83c-1.04,1.23-2.02,2.46-2.93,3.68c-1.82,2.46-3.39,4.85-4.59,7.23
							c-2.37,4.82-3.42,9.18-2.84,12.51c3.62-0.54,7.63-2.83,12-5.75c2.18-1.49,4.36-3.33,6.62-5.21c2.26-1.86,4.53-3.92,6.76-6.13
							c2.2-2.26,4.46-4.39,6.56-6.73c2.12-2.29,4.1-4.75,5.95-7.06C348.03,171.78,350.99,167.05,352.44,162.73L352.44,162.73z"/>
					</g>
				</g>
			</g>
			<g>
				<g>
					<path d="M432.76,178.27c12.35,0,24.69,2.43,32.98,6.3c-5.72,1.92-13.29,2.98-21.76,2.98c-12.85,0-24.98-2.5-31.49-6.24
						C417.34,179.38,424.5,178.27,432.76,178.27 M432.76,174.77c-11.15,0-21.32,1.96-26.48,6.04c5.6,6.54,21.88,10.24,37.71,10.24
						c11.39,0,22.54-1.92,29.3-6.09C464.46,178.3,447.72,174.77,432.76,174.77L432.76,174.77z"/>
				</g>
			</g>
		</g>
		<g>
			<path d="M128.31,416.52c-0.46,0-0.87-0.32-0.98-0.79l-12.47-57.67c-0.12-0.54,0.23-1.07,0.77-1.19c0.54-0.11,1.07,0.23,1.19,0.77
				l12.47,57.67c0.12,0.54-0.23,1.07-0.77,1.19C128.45,416.52,128.38,416.52,128.31,416.52z"/>
		</g>
		<g>
			<path d="M215.66,419.68c-0.16,0-0.32-0.04-0.47-0.12c-0.49-0.26-0.67-0.87-0.41-1.35l27.87-52.01c0.26-0.49,0.87-0.67,1.35-0.41
				c0.49,0.26,0.67,0.87,0.41,1.35l-27.87,52.01C216.36,419.49,216.01,419.68,215.66,419.68z"/>
		</g>
		<g>
			<path d="M214.83,471.41c-0.1,0-0.2-0.01-0.3-0.05c-0.53-0.17-0.82-0.73-0.65-1.26l17.9-56.23c0.17-0.53,0.73-0.82,1.26-0.65
				c0.53,0.17,0.82,0.73,0.65,1.26l-17.9,56.23C215.64,471.14,215.25,471.41,214.83,471.41z"/>
		</g>
		<g>
			<path d="M213.66,378.66c-0.21,0-0.43-0.07-0.61-0.21c-0.44-0.34-0.51-0.97-0.17-1.4l36.29-46.52c0.34-0.44,0.97-0.51,1.4-0.17
				c0.44,0.34,0.51,0.97,0.17,1.4l-36.29,46.52C214.25,378.53,213.96,378.66,213.66,378.66z"/>
		</g>
		<g>
			<path d="M223.38,341.72c-0.26,0-0.52-0.1-0.72-0.31c-0.38-0.4-0.37-1.03,0.03-1.41l42.49-40.94c0.4-0.38,1.03-0.37,1.41,0.03
				c0.38,0.4,0.37,1.03-0.03,1.41l-42.49,40.94C223.88,341.63,223.63,341.72,223.38,341.72z"/>
		</g>
		<g>
			<path d="M240.57,300.6c-0.35,0-0.69-0.19-0.88-0.51c-0.27-0.48-0.09-1.09,0.39-1.36l51.58-28.65c0.48-0.27,1.09-0.09,1.36,0.39
				c0.27,0.48,0.09,1.09-0.39,1.36l-51.58,28.65C240.9,300.56,240.74,300.6,240.57,300.6z"/>
		</g>
		<g>
			<path d="M262.63,271.71c-0.46,0-0.87-0.32-0.97-0.78c-0.12-0.54,0.22-1.07,0.76-1.19l67.18-15.05c0.55-0.12,1.07,0.22,1.19,0.76
				c0.12,0.54-0.22,1.07-0.76,1.19l-67.18,15.05C262.77,271.7,262.7,271.71,262.63,271.71z"/>
		</g>
		<g>
			<path d="M295.64,251.54c-0.5,0-0.93-0.38-0.99-0.89c-0.06-0.55,0.33-1.04,0.88-1.11l68.39-7.86c0.55-0.06,1.04,0.33,1.11,0.88
				s-0.33,1.04-0.88,1.11l-68.39,7.86C295.72,251.54,295.68,251.54,295.64,251.54z"/>
		</g>
		<g>
			<path d="M333.88,234.37c-0.5,0-0.93-0.38-0.99-0.89c-0.06-0.55,0.33-1.04,0.88-1.11l68.39-7.86c0.55-0.07,1.04,0.33,1.11,0.88
				c0.06,0.55-0.33,1.04-0.88,1.11L334,234.36C333.96,234.36,333.92,234.37,333.88,234.37z"/>
		</g>
		<g>
			<path d="M135.74,361.37c-0.5,0-0.93-0.37-0.99-0.88l-6.85-58.61c-0.06-0.55,0.33-1.05,0.88-1.11c0.55-0.06,1.05,0.33,1.11,0.88
				l6.85,58.61c0.06,0.55-0.33,1.05-0.88,1.11C135.81,361.36,135.77,361.37,135.74,361.37z"/>
		</g>
		<g>
			<path d="M156.92,312.31c-0.02,0-0.05,0-0.07,0c-0.55-0.04-0.96-0.52-0.92-1.07l4.34-58.85c0.04-0.55,0.53-0.97,1.07-0.92
				c0.55,0.04,0.96,0.52,0.92,1.07l-4.34,58.85C157.88,311.91,157.44,312.31,156.92,312.31z"/>
		</g>
		<g>
			<path d="M181.72,259.45c-0.11,0-0.22-0.02-0.33-0.06c-0.52-0.18-0.8-0.75-0.62-1.27l19.26-55.77c0.18-0.52,0.75-0.8,1.27-0.62
				c0.52,0.18,0.8,0.75,0.62,1.27l-19.26,55.77C182.52,259.19,182.13,259.45,181.72,259.45z"/>
		</g>
		<g>
			<path d="M219.94,228.21c-0.11,0-0.22-0.02-0.33-0.06c-0.52-0.18-0.8-0.75-0.62-1.27l17.08-49.45c0.18-0.52,0.75-0.8,1.27-0.62
				c0.52,0.18,0.8,0.75,0.62,1.27l-17.08,49.45C220.74,227.95,220.35,228.21,219.94,228.21z"/>
		</g>
		<g>
			<path d="M265.31,196.18c-0.23,0-0.47-0.08-0.66-0.25c-0.42-0.36-0.46-1-0.09-1.41l42.99-49.03c0.36-0.42,1-0.46,1.41-0.09
				c0.42,0.36,0.46,1,0.09,1.41l-42.99,49.03C265.86,196.07,265.58,196.18,265.31,196.18z"/>
		</g>
		<g>
			<path d="M409.32,219.67c-25.72,0-47.35-2.01-47.62-2.03c-0.55-0.05-0.95-0.54-0.9-1.09c0.05-0.55,0.55-0.95,1.09-0.9
				c0.33,0.03,33.43,3.11,66.38,1.62c0.55-0.02,1.02,0.4,1.04,0.95c0.02,0.55-0.4,1.02-0.95,1.04
				C421.94,219.56,415.51,219.67,409.32,219.67z"/>
		</g>
		<g>
			<path d="M445.35,216.34c-25.72,0-47.35-2.01-47.62-2.04c-0.55-0.05-0.95-0.54-0.9-1.09c0.05-0.55,0.55-0.95,1.09-0.9
				c0.33,0.03,33.43,3.11,66.38,1.62c0.54-0.01,1.02,0.4,1.04,0.95c0.02,0.55-0.4,1.02-0.95,1.04
				C457.97,216.22,451.54,216.34,445.35,216.34z"/>
		</g>
		<g>
			<path d="M144.85,493.13c-0.25,0-0.5-0.09-0.69-0.28c-0.51-0.49-12.59-12.42-22.04-44.97c-0.15-0.53,0.15-1.09,0.68-1.24
				c0.54-0.16,1.08,0.15,1.24,0.68c9.28,31.96,21.39,43.97,21.51,44.09c0.4,0.38,0.41,1.02,0.02,1.41
				C145.38,493.03,145.11,493.13,144.85,493.13z"/>
		</g>
		<g>
			<g>
				<path d="M250.91,471.47c-0.78,0.06-1.47,0.06-1.78-0.04c-1.45-0.48-1.55-1.24-1.61-2.6c-0.09-2.41,1.83-4.96,2.69-7.12
					c1.22-3.09,2.46-6.16,3.72-9.23c0.45-1.11,1.02-2.17,1.46-3.29c1.37-3.52,2.32-7.28,4.15-10.54c2.63-4.68,3.09-9.99,5.13-14.84
					c4.29-10.2,7.68-19.57,13.48-29.08c2.54-4.15,8.16-3.69,11.4-0.6c1.86,1.77,2.28,5.54,3.09,7.95c1.34,3.99,2.44,8.55,4.24,12.34
					c1.57,3.3,2.4,6.71,3.65,10.18c1.37,3.78,2.64,7.59,3.96,11.39c1.4,3.99,2.96,7.93,4.18,11.97c1.03,3.4,3.89,9.36,1.74,12.79
					c-3.64,5.82-6.8-0.9-8.07-4.55c-2.59-7.45-2.99-15.55-7.14-22.47c-1.68-2.8-8.24-0.57-10.54,0.03
					c-5.13,1.34-10.17,2.6-15.39,3.62c-0.79,0.16-1.71,0.74-2.16,1.41c-3.09,4.57-4.92,10.51-6.52,15.78
					c-1.12,3.69-2.66,7.53-3.83,11.21C255.6,469.45,254.94,471.14,250.91,471.47z M269.94,430.83c0.2,0.14,0.41,0.28,0.61,0.42
					c0.61-0.24,1.21-0.55,1.84-0.72c4.86-1.31,9.66-3.04,14.61-3.76c1.56-0.23,3.41-0.18,4.81-0.95c0.13-0.07,0.27-0.16,0.33-0.3
					c0.07-0.16,0.03-0.34-0.02-0.51c-0.53-1.94-1.08-3.85-1.67-5.76c-0.9-2.96-1.99-5.77-2.84-8.75c-0.27-0.95-1.18-5.72-2.51-5.81
					c-0.25-0.02-0.5-0.03-0.76-0.05C279.55,413.37,274.75,422.1,269.94,430.83z"/>
			</g>
			<g>
				<path d="M404.62,450.93c-0.59,0.46-1.53,0.63-2.5,0.65c-0.39,0.01-0.8-0.01-1.15-0.19c-0.44-0.22-0.72-0.66-0.96-1.08
					c-2.11-3.74-2.89-8.61-3.88-12.75c-1.1-4.57-2.03-9.19-2.98-13.79c-0.3-1.45-0.38-3.69-1.66-4.71c-1.1-0.87-2.54,0.1-3.33,0.93
					c-2.18,2.29-4.38,4.55-6.6,6.79c-2.46,2.48-5.45,7.21-9.42,7.02c-0.95-0.05-1.85-0.45-2.71-0.86c-3.57-1.73-6.98-3.76-10.2-6.07
					c-3.12-2.24-5.24-4.74-7.85-7.47c-0.38-0.4-2.84-2.26-2.83-2.67c-0.06,6.65,1.35,13.26,1.66,19.92
					c0.18,3.87,0.39,7.74,0.66,11.61c0.28,3.89,0.74,7.77,0.97,11.66c0.1,1.63-3.84,3.5-5.11,2.52c-0.82-0.64-1.13-1.73-1.33-2.75
					c-2.13-10.64-1.46-21.76-2.38-32.55c-0.34-3.97-0.64-8.2-0.71-12.29c-0.03-1.91-0.56-5.68,0.51-7.37
					c0.29-0.45,0.76-0.75,1.24-0.99c2.51-1.25,4.94-1.91,6.96,0.29c2.44,2.65,4.22,5.6,6.88,8.06c2.85,2.62,5.88,5.06,9.05,7.28
					c0.86,0.6,1.78,1.21,2.83,1.3c3.18,0.27,6.5-3.67,8.54-5.75c4.06-4.14,7-9,10.79-13.35c0.77-0.89,2.16-1.9,3.15-1.79
					c2.72,0.3,3.54,4.19,3.99,6.33c0.3,1.42,0.41,2.87,0.67,4.29c0.71,3.79,1.55,7.81,2.28,11.67c0.51,2.72,1.21,5.4,1.89,8.08
					c0.61,2.88,1.54,5.72,2.27,8.57c0.62,2.44,0.85,4.83,1.67,7.2C405.42,449.76,405.19,450.48,404.62,450.93z"/>
			</g>
			<path d="M532.19,397.01c-2.25-0.45-4.66,0.94-5.95,2.42c-0.7,0.81-1.18,1.72-1.41,2.71c-0.19,0.79-0.38,1.58-0.57,2.37
				c-0.71,2.91-1.44,5.92-1.87,8.94c-0.11,0.74-0.27,1.48-0.43,2.19c-0.19,0.87-0.39,1.76-0.49,2.68c-0.3,2.72-0.84,5.56-1.71,8.94
				c-0.09,0.34-0.16,0.73-0.23,1.13c-0.27,1.49-0.54,3.04-1.93,3.4c-1.14,0.29-2.71-0.37-3.67-1.19c-2.48-2.12-4.34-4.89-6.14-7.57
				c-0.91-1.35-1.85-2.75-2.86-4.05c-2.02-2.6-3.75-5.62-4.88-7.67c-1.13-2.03-2.71-3.85-4.24-5.61c-0.8-0.92-1.62-1.86-2.36-2.82
				l-0.21-0.28c-1.46-1.9-3.65-4.77-6.56-4.18c-1.52,0.31-2.97,1.34-4.08,2.93c-1.61,2.29-1.86,5.98-2.07,9.24
				c-0.07,1.08-0.14,2.11-0.25,2.98c-0.34,2.59-0.58,5.44-0.74,8.7c-0.17,3.41-0.22,6.87-0.27,10.22c-0.04,2.41-0.07,4.82-0.15,7.23
				c-0.03,0.98,0.19,1.82,0.64,2.42c0.5,0.66,1.26,1.02,2.21,1.05c0.03,0,0.06,0,0.08,0c1.02,0,2.47-0.55,3.07-1.41
				c0.68-0.96,0.67-2.46,0.66-3.55c-0.01-0.96-0.09-1.93-0.16-2.86c-0.11-1.29-0.22-2.63-0.13-3.92c0.29-4.26,0.74-8.71,1.37-13.25
				c0.02-0.14,0.04-0.39,0.08-0.72c0.49-4.98,1.17-7.76,2.03-8.25c0.13-0.07,0.25-0.08,0.4-0.01c1.39,0.64,2.35,1.81,3.3,3.06
				c1.45,1.91,2.83,3.95,4.16,5.93c0.89,1.31,1.77,2.62,2.68,3.9c0.5,0.7,1.02,1.38,1.54,2.06c0.88,1.15,1.79,2.33,2.55,3.59
				c0.58,0.97,1.34,1.78,2.07,2.56c0.61,0.65,1.23,1.31,1.73,2.05c1.1,1.62,2.45,2.85,3.88,4.16c0.3,0.27,0.59,0.54,0.89,0.82
				c2.49,2.33,7.78,4.12,10.71,1.75c2.27-1.83,3.26-6.92,4.05-11.01c0.31-1.6,0.6-3.12,0.92-4.14c0.79-2.55,1.42-5.2,2.03-7.77
				c0.49-2.07,1-4.2,1.58-6.26c0.24-0.82,0.51-1.64,0.78-2.45c0.27-0.82,0.55-1.65,0.78-2.48c0.32-1.13,0.52-2.45,0.7-3.61
				l0.13-0.81C534.16,398.56,533.56,397.28,532.19,397.01z"/>
			<path d="M456.48,435.91c-0.16-0.33-0.31-0.63-0.42-0.89c-0.75-1.72-1.61-3.41-2.44-5.04c-0.71-1.39-1.44-2.83-2.09-4.26
				c-0.74-1.62-1.39-3.33-2.03-4.98l-0.45-1.17c-0.53-1.37-1.24-2.63-1.93-3.85c-0.29-0.52-0.58-1.03-0.86-1.56
				c-0.25-0.48-0.49-0.96-0.71-1.46c-1.18-2.68-2.4-5.29-3.63-7.74c-0.82-1.65-1.45-2.47-3.59-2.91c-1.61-0.33-3.33-0.09-4.86,0.65
				c-1.33,0.65-2.33,2.57-2.59,4.04c-1.45,8.05-2.31,15.96-3.21,24.74c-0.08,0.8-0.19,1.57-0.3,2.34c-0.32,2.32-0.63,4.52-0.21,7.05
				c0.15,0.9,1.43,2.32,2.51,2.32c0.06,0,0.12,0,0.18-0.01c1.01-0.16,2.38-1.07,2.81-2.18c0.35-0.91,0.57-1.84,0.78-2.74
				c0.07-0.31,0.15-0.62,0.22-0.93c0.12-0.49,0.15-1.02,0.18-1.53c0.03-0.58,0.07-1.18,0.25-1.54c0.14-0.27,0.43-0.33,1.24-0.35
				c0.26-0.01,0.51-0.02,0.75-0.05c0.81-0.1,1.61-0.28,2.39-0.45c0.56-0.12,1.12-0.25,1.67-0.34c1.76-0.3,3.56-0.55,5.3-0.79
				c0.74-0.1,1.48-0.21,2.22-0.31c0.06-0.01,0.11-0.02,0.1-0.04c0.02,0.01,0.06,0.05,0.17,0.17c1.44,1.63,2.57,3.71,3.67,6.74
				c0.08,0.23,0.16,0.55,0.24,0.9c0.21,0.88,0.42,1.79,0.9,2.36c0.6,0.71,1.7,0.92,2.86,0.56c1.27-0.4,2.16-1.32,2.26-2.36
				C457.98,438.99,457.15,437.28,456.48,435.91z M435.24,426.73c0.07-0.27,0.13-0.49,0.15-0.65c0.16-1,0.28-2.02,0.38-3.01
				c0.05-0.49,0.11-0.99,0.17-1.48l0.66-5.36c0.03-0.24,0.04-0.6,0.06-1.03c0.03-0.78,0.07-1.85,0.26-2.55
				c0.08-0.3,0.16-0.42,0.16-0.42c0.04-0.01,0.21,0.01,0.35,0.13c1.06,0.91,2.04,2.39,2.99,4.5c0.8,1.78,1.66,3.44,2.5,5.06
				c0.29,0.52,0.56,1.05,0.82,1.57c0.47,0.94,0.96,1.9,1.6,2.85c0.02,0.03,0.05,0.07,0.08,0.11c-0.03,0.02-0.07,0.05-0.12,0.08
				c-3.33,1.82-8.14,1.83-10.34,1.73C434.95,427.85,435.15,427.06,435.24,426.73z"/>
			<path d="M579.25,414.92c-1.07-2.43-2.62-4.77-4.61-6.96c-1.71-1.89-3.56-2.07-5.81-1.77c-4.29,0.58-8.92,3.19-11.5,6.48
				c-3.18,4.04-4.45,10.89-2.83,15.27c0.83,2.26,3.28,7.54,7.98,7.81c0.36,0.02,0.99,0.05,1.79,0.05c3.71,0,11.22-0.57,14.3-4.95
				C582.69,424.98,580.77,418.35,579.25,414.92z M562.05,428.74c-3.12-1.46-2.59-5.51-2.23-7.19c0.34-1.52,2.24-8.96,7.33-8.96
				c0.12,0,0.25,0,0.38,0.01c0.99,0.07,1.83,0.22,2.58,0.47c2.99,0.99,4.97,3.45,5.16,6.41c0.11,1.75-0.17,3.39-0.81,4.77
				c-0.83,1.77-2.26,3.07-4.14,3.78C567.79,428.98,564.56,429.92,562.05,428.74z"/>
		</g>
		<g>
			<path d="M664.7,404.47c0-30.69-5.96-60.03-16.81-87.01l-0.01,0h0.01c-6.59-17.69-14.45-34.91-22.78-51.84
				c-1.7-3.45-3.66-6.79-5.7-10.04c-1.54-2.45-8.57-14.93-12.48-10.26c-2.55,3.04-0.54,10.61,1.34,13.57
				c-0.02-0.03-5.38-8.45-5.38-8.45c-4.31-4.87-6.85-7.54-12.02-8.86c-6.23-1.59-3.95,7.24-2.49,10.25c0.97,2,2.6,5.75,4.54,7.06
				c0,0-7.93-5.34-7.93-5.34c-3.61-2.37-7.48-4.35-11.52-5.9c-2.13-0.82-4.94-2.13-7.26-2.05c-2.84,0.1-3.52,2.25-2.79,4.68
				c0.37,1.22,1,2.38,1.72,3.42c1.94,2.79,5.24,5.04,7.63,7.47c2.7,2.75,5.29,5.62,7.83,8.52c3.94,4.51,7.77,9.12,11.5,13.81
				c0.27,0.34,0.54,0.68,0.81,1.02c0,0-6.19-5.53-20.22-14.33c-0.09-0.06-0.18-0.11-0.27-0.17c-3.9-2.42-12.11-7.37-16.33-2.82
				c-4.5,4.86,3.08,10.55,6.17,13.86c2.16,2.32,4.38,4.58,6.66,6.79l-0.01,0.01c8.89,8.57,17,17.88,24.24,27.84
				c0.61,0.93,1.64,2.9,0.29,3.9c0,0-1.38-0.63-7.43-5.13s-15.91-14.19-24.78-8.93c0,0-4.5,3.32,4.42,12.56
				c8.93,9.24,27.64,28.47,39.98,46.77c0,0,26.2,30.2,24.29,102.52c-15.48,98.57-102.19,174.48-207.69,176.95
				C556.63,641.59,664.7,535.25,664.7,404.47z"/>
			<path d="M422.25,644.33c-1.77,0.04-3.54,0.07-5.32,0.07C418.71,644.39,420.48,644.37,422.25,644.33z"/>
		</g>
	</g>
</g>
<g id="Layer_3" class="st0">
</g>
</svg>
